<?xml version="1.0" encoding="utf-8"?>
<!-- Generator: Adobe Adobe Illustrator 24.2.0, SVG Export Plug-In . SVG Version: 6.00 Build 0)  -->
<svg version="1.1" id="Layer_1" xmlns="http://www.w3.org/2000/svg" xmlns:xlink="http://www.w3.org/1999/xlink" x="0px" y="0px"
	 width="361.77px" height="611.21px" viewBox="0 0 361.77 611.21" style="enable-background:new 0 0 361.77 611.21;"
	 xml:space="preserve">
<style type="text/css">
	.st0{fill:#FFFFFF;}
	.st1{fill:#EBE7DF;}
	.st2{fill-rule:evenodd;clip-rule:evenodd;}
	.st3{fill:#D6BFC0;}
	.st4{fill:#D7D3CD;}
	.st5{fill:#9FBE4A;}
	.st6{fill:none;stroke:#9FBE4A;stroke-miterlimit:10;}
	.st7{fill:#8DAC48;}
	.st8{fill:#C29D7E;}
	.st9{fill:#DED8A9;}
	.st10{fill:#698B33;}
	.st11{fill:#AFC66F;}
	.st12{fill:#D2D69B;}
	.st13{fill:none;stroke:#A3C073;stroke-miterlimit:10;}
	.st14{fill:#A3C073;}
	.st15{fill:#9BBA62;}
	.st16{fill:#BACC4C;}
	.st17{fill:none;stroke:#BACC4C;stroke-miterlimit:10;}
	.st18{fill:#99BC3D;}
	.st19{fill:none;stroke:#84A845;stroke-miterlimit:10;}
	.st20{fill:#84A845;}
	.st21{fill:none;stroke:#9DB83E;stroke-miterlimit:10;}
	.st22{fill:#9DB83E;}
	.st23{fill:none;stroke:#D9DB8F;stroke-miterlimit:10;}
	.st24{fill:#D9DB8F;}
	.st25{fill:#EC8078;}
	.st26{fill:none;stroke:#F0A39A;stroke-miterlimit:10;}
	.st27{fill:#F0A39A;}
	.st28{fill:none;stroke:#E3AAB6;stroke-miterlimit:10;}
	.st29{fill:#E3AAB6;}
	.st30{fill:none;stroke:#C95556;stroke-miterlimit:10;}
	.st31{fill:#C95556;}
	.st32{fill:none;stroke:#E17173;stroke-miterlimit:10;}
	.st33{fill:#E17173;}
	.st34{fill:none;stroke:#B24244;stroke-miterlimit:10;}
	.st35{fill:#B24244;}
	.st36{fill:none;stroke:#C5C1B9;stroke-miterlimit:10;}
	.st37{fill:#C5C1B9;}
	.st38{fill:none;stroke:#808073;stroke-miterlimit:10;}
	.st39{fill:#808073;}
	.st40{fill:none;stroke:#D6D6CD;stroke-miterlimit:10;}
	.st41{fill:#D6D6CD;}
	.st42{fill:none;stroke:#ACACA2;stroke-miterlimit:10;}
	.st43{fill:#ACACA2;}
	.st44{fill:#C0D8A8;}
	.st45{fill:#FEE8D3;}
	.st46{clip-path:url(#SVGID_2_);fill:#6FA747;}
	.st47{clip-path:url(#SVGID_4_);fill:#6FA747;}
	.st48{clip-path:url(#SVGID_6_);fill:#6FA747;}
	.st49{clip-path:url(#SVGID_8_);fill:#6FA747;}
	.st50{fill:#FF6624;}
	.st51{clip-path:url(#SVGID_10_);fill:#6FA747;}
	.st52{clip-path:url(#SVGID_12_);fill:#6FA747;}
	.st53{fill:#EFF7CB;}
	.st54{fill:#74AA4B;}
</style>
<g>
	<g>
		<path class="st1" d="M257.86,474.08c0.29,0,0.58-0.5,0.87-0.5C258.43,473.58,258.15,474.08,257.86,474.08L257.86,474.08z"/>
	</g>
</g>
<rect x="108.51" y="194.73" class="st45" width="145" height="326"/>
<polygon class="st45" points="108.51,520.73 143.01,194.73 74.01,194.73 "/>
<polygon class="st45" points="253.51,520.73 288.01,194.73 219.01,194.73 "/>
<rect x="126.13" y="236.82" class="st44" width="109.77" height="271.09"/>
<polygon class="st44" points="126.13,507.91 152.25,236.82 100.01,236.82 "/>
<polygon class="st44" points="235.9,507.91 262.01,236.82 209.78,236.82 "/>
<g>
	<g>
		<defs>
			<polygon id="SVGID_1_" points="200.9,285.53 219.33,218.99 232.21,218.99 232.21,285.91 200.9,285.91 			"/>
		</defs>
		<clipPath id="SVGID_2_">
			<use xlink:href="#SVGID_1_"  style="overflow:visible;"/>
		</clipPath>
		<path class="st46" d="M200.9,278.27c2.53,7.37,13.39,9.71,20.61,5.66c7.23-4.06,10.75-12.52,10.69-20.36
			c-0.06-7.84-3.1-15.25-6.23-22.39c-3.13-7.15-6.44-14.39-7.08-22.19C213.01,239.08,207.12,259.18,200.9,278.27z"/>
	</g>
	<g>
		<defs>
			<polygon id="SVGID_3_" points="200.9,285.53 219.32,218.99 208.28,212.36 173.86,269.75 200.71,285.85 			"/>
		</defs>
		<clipPath id="SVGID_4_">
			<use xlink:href="#SVGID_3_"  style="overflow:visible;"/>
		</clipPath>
		<path class="st47" d="M204.63,279.31c-5.97,5.02-16.48,1.45-20.59-5.75c-4.11-7.2-2.78-16.27,1.3-22.96
			c4.09-6.69,10.5-11.48,16.86-16c6.36-4.52,12.92-9.03,17.48-15.39C214.41,239.47,209.12,259.73,204.63,279.31z"/>
	</g>
</g>
<g>
	<g>
		<defs>
			<polygon id="SVGID_5_" points="146.7,373.43 129.8,310.94 167.2,310.94 167.2,373.43 			"/>
		</defs>
		<clipPath id="SVGID_6_">
			<use xlink:href="#SVGID_5_"  style="overflow:visible;"/>
		</clipPath>
		<path class="st48" d="M144.05,371.05c5.93,5.05,16.44,1.55,20.59-5.62s2.88-16.23-1.16-22.94s-10.42-11.53-16.74-16.08
			c-6.32-4.55-12.85-9.1-17.37-15.47C134.53,331.21,139.69,351.47,144.05,371.05z"/>
	</g>
	<g>
		<defs>
			<polygon id="SVGID_7_" points="146.7,373.43 129.81,310.94 97.5,329.79 128.98,383.76 			"/>
		</defs>
		<clipPath id="SVGID_8_">
			<use xlink:href="#SVGID_7_"  style="overflow:visible;"/>
		</clipPath>
		<path class="st49" d="M147.78,370.04c-2.58,7.35-13.43,9.62-20.62,5.52c-7.19-4.1-10.66-12.57-10.55-20.4
			c0.11-7.83,3.19-15.21,6.36-22.33c3.17-7.12,6.52-14.33,7.2-22.11C135.93,330.83,141.68,350.94,147.78,370.04z"/>
	</g>
</g>
<rect x="166.34" y="130.78" transform="matrix(0.9641 -0.2657 0.2657 0.9641 -79.2467 57.7529)" class="st50" width="15" height="382"/>
<rect x="126.13" y="247.64" class="st45" width="60" height="60"/>
<rect x="163.76" y="443.83" transform="matrix(0.9885 0.151 -0.151 0.9885 73.7725 -23.8259)" class="st45" width="60" height="60"/>
<rect x="163.76" y="316.72" transform="matrix(0.9265 0.3762 -0.3762 0.9265 144.6669 -47.4222)" class="st45" width="60" height="60"/>
<rect x="126.13" y="379.38" transform="matrix(0.9017 -0.4324 0.4324 0.9017 -161.6686 107.7615)" class="st45" width="60" height="60"/>
<g>
	<g>
		<defs>
			<rect id="SVGID_9_" x="209.78" y="413.03" width="25.18" height="66.13"/>
		</defs>
		<clipPath id="SVGID_10_">
			<use xlink:href="#SVGID_9_"  style="overflow:visible;"/>
		</clipPath>
		<path class="st51" d="M207.88,474.61c4.39,6.39,15.4,5.76,21.25-0.04c5.85-5.8,6.97-14.85,4.83-22.34
			c-2.14-7.5-7.02-13.79-11.92-19.81s-9.99-12.09-12.67-19.39C209.07,433.85,208.77,454.66,207.88,474.61z"/>
	</g>
	<g>
		<defs>
			<rect id="SVGID_11_" x="184.6" y="413.03" width="25.18" height="66.13"/>
		</defs>
		<clipPath id="SVGID_12_">
			<use xlink:href="#SVGID_11_"  style="overflow:visible;"/>
		</clipPath>
		<path class="st52" d="M211.68,474.61c-4.39,6.39-15.4,5.76-21.25-0.04s-6.97-14.85-4.83-22.34c2.14-7.5,7.02-13.79,11.92-19.81
			c4.9-6.02,9.99-12.09,12.67-19.39C210.49,433.85,210.79,454.66,211.68,474.61z"/>
	</g>
</g>
<path class="st53" d="M227.58,167.91c34.34,17.44,66.37,39.44,94.97,65.24c13.22-24.37,5.03-58.14-17.88-73.75
	C281.76,143.79,247.34,148.52,227.58,167.91z"/>
<path class="st54" d="M286.95,197.66c9.48,6.64,24.51,18.53,33.99,25.17c2.03-5.73,4.38-18.77,1.2-28.1
	C310.91,195.85,297.63,196.2,286.95,197.66z"/>
<path class="st54" d="M284.37,193.1c8.8,0,23.6-2.35,35.96-3.42c-1.63-7.01-10.43-22-18.25-26.01
	C296.18,172.59,290.68,184.37,284.37,193.1z"/>
<path class="st54" d="M279.36,190.2c-2.78-7.26-10.94-23.11-15-33.7c7.79-3.15,24.49-0.5,32.95,3.98
	C290.52,171.4,286.2,179.87,279.36,190.2z"/>
<path class="st54" d="M274.36,189.69c-7.99-4.49-27.63-16.52-38.47-23.09c3.56-2.64,11.34-8.19,22.4-9.49
	C261.6,164.1,271.15,182.88,274.36,189.69z"/>
</svg>
