<?xml version="1.0" encoding="UTF-8"?><svg id="Layer_1" xmlns="http://www.w3.org/2000/svg" width="372.57" height="503.82" xmlns:xlink="http://www.w3.org/1999/xlink" viewBox="0 0 372.57 503.82"><defs><style>.cls-1{fill:none;}.cls-2{fill:url(#linear-gradient);opacity:.86;}.cls-3{clip-path:url(#clippath);}.cls-4{fill:#73ab48;}.cls-5,.cls-6,.cls-7{fill:#a7d7c9;}.cls-8{fill:#88bd60;}.cls-9{fill:#80bd55;}.cls-10{clip-path:url(#clippath-1);}.cls-11{fill:url(#linear-gradient-2);}.cls-12{opacity:.78;}.cls-13{fill:url(#radial-gradient);}.cls-6{opacity:.82;}.cls-7{opacity:.8;}</style><linearGradient id="linear-gradient" x1="176.68" y1="92.95" x2="176.68" y2="194.46" gradientUnits="userSpaceOnUse"><stop offset="0" stop-color="#e86c54"/><stop offset="1" stop-color="#fcc6b6"/></linearGradient><clipPath id="clippath"><rect class="cls-1" x="116.18" y="405.52" width="62.17" height="32.58"/></clipPath><clipPath id="clippath-1"><rect class="cls-1" x="178.35" y="405.52" width="62.17" height="32.58"/></clipPath><radialGradient id="radial-gradient" cx="-915.49" cy="-815.51" fx="-915.49" fy="-815.51" r="22.36" gradientTransform="translate(759.93 2154.75) rotate(36.31) scale(1.75 1.7) skewX(-.16)" gradientUnits="userSpaceOnUse"><stop offset="0" stop-color="#73ab48"/><stop offset="1" stop-color="#5d9432"/></radialGradient><linearGradient id="linear-gradient-2" x1="-554.24" y1="-933.63" x2="-554.24" y2="-944.39" gradientTransform="translate(101.03 1694.42) rotate(36.4) scale(1.38 1.48)" gradientUnits="userSpaceOnUse"><stop offset="0" stop-color="#73ab48"/><stop offset="1" stop-color="#568532"/></linearGradient></defs><polygon class="cls-7" points="179.09 211.23 323.75 70.37 27.7 73.24 179.09 211.23"/><path class="cls-2" d="m180.1,195.59c39.57-36.57,76.25-74.11,115.82-110.68-40.27-10.68-79.84.25-120.76,8.08-40.92,7.83-80.58,12.09-117.69-6.79,41.68,37.22,78.56,75.4,122.64,109.39Z"/><rect class="cls-6" x="171.88" y="204.52" width="14.42" height="205.07"/><g class="cls-12"><g class="cls-3"><path class="cls-5" d="m187.31,437.15c-20.47.36-43.69.58-64.16.95-3.5.06-6.29-1.41-6.87-4.77-.59-3.36,1.47-7.51,4.8-8.58,19.43-6.23,41.24-13,60.67-19.23,1.24,10.5,2.48,20.99,5.56,31.63Z"/></g><g class="cls-10"><path class="cls-5" d="m169.4,437.15c20.47.36,43.69.58,64.16.95,3.5.06,6.29-1.41,6.87-4.77.59-3.36-1.47-7.51-4.8-8.58-19.43-6.23-41.24-13-60.67-19.23-1.24,10.5-2.48,20.99-5.56,31.63Z"/></g></g><path class="cls-8" d="m289.18,60.56s-.04-.03-.06-.04c-.13-.08-.26-.17-.39-.25-.1-.06-.17-.15-.22-.24-.08-.06-.14-.13-.19-.2-.03-.02-.05-.05-.08-.07,0,0,0,0,0,.01-.02-.02-.04-.04-.06-.06-.03-.03-.07-.06-.09-.09,0,0,0-.01-.02-.02,0,0,0,.01,0,.02-.07-.05-.13-.1-.2-.15-.07-.05-.11-.13-.16-.2,0,0,0,.01,0,.02.03.04.06.07.07.09-.01,0-.02-.02-.04-.03-.03-.02-.06-.04-.09-.07-.07-.06-.15-.11-.22-.17-.1-.08-.2-.15-.3-.23-.06-.05-.12-.11-.18-.16-22.77-15.51-53.78-9.48-77.28-3.4-7.74,2-7.62,9.6-2.37,16.28,5.24,6.68,6.97,4,11.8-2.74,12.84-17.89,50.98-19.71,70.18-8.13-.05-.04-.1-.1-.14-.16Z"/><path class="cls-4" d="m302.75,87.34c.72-9.6-5.54-19.8-13.93-27.01-.03-.02-.05-.03-.08-.05-.04-.02-.06-.06-.09-.09-.91-.78-1.84-1.53-2.8-2.23l-8.47-2.27c9.91,4.71,13.6,10.7,16.66,21.96,3.07,11.26-13.42,29.37-21.79,35.15,8.74-.08,8.65-2.37,14.14-.62,9.8-4.4,15.55-14.13,16.35-24.83Z"/><path class="cls-9" d="m289.18,60.56s-.04-.03-.06-.04c-.13-.08-.26-.17-.39-.25-.1-.06-.17-.15-.22-.24-.08-.06-.14-.13-.19-.2-.03-.02-.05-.05-.08-.07,0,0,0,0,0,.01-.02-.02-.04-.04-.06-.06-.03-.03-.07-.06-.09-.09,0,0,0-.01-.02-.02,0,0,0,.01,0,.02-.07-.05-.13-.1-.2-.15-.07-.05-.11-.13-.16-.2,0,0,0,.01,0,.02.03.04.06.07.07.09-.01,0-.02-.02-.04-.03-.03-.02-.06-.04-.09-.07-.07-.06-.15-.11-.22-.17-.1-.08-.2-.15-.3-.23-.06-.05-.12-.11-.18-.16-22.77-15.51-71.65-12.25-79.98-3.28-5.65,6.08-6.61,11.94.25,16.99,7.23,5.31,4.71,6.35,9.55-.39,12.84-17.89,53.3-22.89,72.51-11.31-.05-.04-.1-.1-.14-.16Z"/><path class="cls-13" d="m302.75,87.34c.72-9.6-5.54-19.8-13.93-27.01-.03-.02-.05-.03-.08-.05-.04-.02-.06-.06-.09-.09-.91-.78-1.84-1.53-2.8-2.23l-8.47-2.27c9.91,4.71,13.6,10.7,16.66,21.96,3.07,11.26-13.42,29.37-21.79,35.15,8.74-.08,8.65-2.37,14.14-.62,9.8-4.4,15.55-14.13,16.35-24.83Z"/><path class="cls-9" d="m272.66,112.5c9.97-2.26,25.28-2.63,37.16-4.52,3.47-.55,8.4,3.86,9.6,6,2.14,3.81,1.07,2.98-2.45,2.92-10.54-.17-26.37,4.13-36.14,4.74-2.56.16-5.19-1.03-6.78-3.07-1.58-2.04-2.78-3.52-1.39-6.08Z"/><path class="cls-11" d="m320.46,116.9c-3.37,9.5-9.73,18.42-17.97,24.27-1.89,1.34-4.68.6-6.75-.56-1.89-1.05-3.9-3.63-4.57-5.99,5.05.31,9.91-2.02,13.64-5.31,3.72-3.29,6.38-8.2,9.1-12.35,2.11-.17,4.35-.18,6.55-.06Z"/></svg>