<?xml version="1.0" encoding="UTF-8"?><svg id="Layer_1" xmlns="http://www.w3.org/2000/svg" width="372.57" height="503.82" xmlns:xlink="http://www.w3.org/1999/xlink" viewBox="0 0 372.57 503.82"><defs><style>.cls-1{fill:none;}.cls-2{fill:url(#linear-gradient);opacity:.86;}.cls-3{clip-path:url(#clippath);}.cls-4{fill:#73ab48;}.cls-5,.cls-6,.cls-7{fill:#a7d7c9;}.cls-8{fill:#88bd60;}.cls-9{fill:#80bd55;}.cls-10{clip-path:url(#clippath-1);}.cls-11{fill:url(#linear-gradient-2);}.cls-12{opacity:.78;}.cls-13{fill:url(#radial-gradient);}.cls-6{opacity:.82;}.cls-7{opacity:.8;}</style><linearGradient id="linear-gradient" x1="185.97" y1="56.49" x2="185.97" y2="180.98" gradientUnits="userSpaceOnUse"><stop offset="0" stop-color="#e86c54"/><stop offset="1" stop-color="#fcc6b6"/></linearGradient><clipPath id="clippath"><rect class="cls-1" x="122.45" y="439.85" width="65.28" height="39.96"/></clipPath><clipPath id="clippath-1"><rect class="cls-1" x="187.72" y="439.85" width="65.28" height="39.96"/></clipPath><radialGradient id="radial-gradient" cx="-924.03" cy="-843.29" fx="-924.03" fy="-843.29" r="22.36" gradientTransform="translate(781.43 2642.82) rotate(40.65) scale(1.95 1.97) skewX(8.39)" gradientUnits="userSpaceOnUse"><stop offset="0" stop-color="#73ab48"/><stop offset="1" stop-color="#5d9432"/></radialGradient><linearGradient id="linear-gradient-2" x1="-556.93" y1="-954.92" x2="-556.93" y2="-967.28" gradientTransform="translate(101.03 1694.42) rotate(36.4) scale(1.38 1.48)" gradientUnits="userSpaceOnUse"><stop offset="0" stop-color="#73ab48"/><stop offset="1" stop-color="#568532"/></linearGradient></defs><polygon class="cls-7" points="188.5 201.55 340.38 28.78 29.55 32.31 188.5 201.55"/><path class="cls-2" d="m189.56,182.38c41.54-44.86,80.06-90.89,121.6-135.75-42.28-13.1-83.83.31-126.79,9.91-42.97,9.61-84.6,14.82-123.57-8.33,43.76,45.65,82.48,92.48,128.76,134.17Z"/><rect class="cls-6" x="180.93" y="193.33" width="15.14" height="251.52"/><g class="cls-12"><g class="cls-3"><path class="cls-5" d="m197.13,478.65c-21.49.45-45.87.72-67.36,1.16-3.68.08-6.6-1.73-7.22-5.85-.62-4.12,1.54-9.21,5.04-10.52,20.4-7.64,43.3-15.94,63.7-23.59,1.3,12.87,2.6,25.75,5.84,38.8Z"/></g><g class="cls-10"><path class="cls-5" d="m178.32,478.65c21.49.45,45.87.72,67.36,1.16,3.68.08,6.6-1.73,7.22-5.85.62-4.12-1.54-9.21-5.04-10.52-20.4-7.64-43.3-15.94-63.7-23.59-1.3,12.87-2.6,25.75-5.84,38.8Z"/></g></g><path class="cls-8" d="m304.09,16.76s-.04-.03-.06-.05c-.14-.1-.27-.2-.41-.31-.11-.08-.18-.18-.23-.3-.08-.07-.14-.15-.19-.25-.03-.03-.06-.06-.08-.09,0,0,0,0,0,.01-.03-.02-.04-.05-.06-.07-.03-.04-.07-.07-.1-.11,0,0-.01-.01-.02-.02,0,0,0,.01,0,.02-.07-.06-.14-.12-.21-.18-.07-.06-.12-.16-.17-.24,0,0,0,.02,0,.02.04.05.06.08.08.11-.01-.01-.02-.02-.04-.04-.03-.03-.06-.05-.09-.08-.08-.07-.16-.14-.23-.21-.1-.09-.21-.19-.31-.28-.07-.06-.13-.13-.19-.2-23.91-19.03-56.46-11.62-81.14-4.18-8.13,2.45-8,11.77-2.49,19.97,5.5,8.2,7.31,4.91,12.39-3.35,13.48-21.94,53.52-24.17,73.69-9.97-.05-.05-.1-.12-.15-.2Z"/><path class="cls-4" d="m318.33,49.6c.76-11.77-5.82-24.28-14.63-33.13-.03-.02-.05-.04-.08-.06-.04-.03-.06-.07-.09-.11-.96-.95-1.93-1.88-2.94-2.74l-8.9-2.79c10.4,5.77,14.28,13.12,17.49,26.93,3.22,13.81-14.09,36.02-22.88,43.12,9.17-.1,9.08-2.91,14.85-.76,10.29-5.4,16.32-17.33,17.17-30.45Z"/><path class="cls-9" d="m304.09,16.76s-.04-.03-.06-.05c-.14-.1-.27-.2-.41-.31-.11-.08-.18-.18-.23-.3-.08-.07-.14-.15-.19-.25-.03-.03-.06-.06-.08-.09,0,0,0,0,0,.01-.03-.02-.04-.05-.06-.07-.03-.04-.07-.07-.1-.11,0,0-.01-.01-.02-.02,0,0,0,.01,0,.02-.07-.06-.14-.12-.21-.18-.07-.06-.12-.16-.17-.24,0,0,0,.02,0,.02.04.05.06.08.08.11-.01-.01-.02-.02-.04-.04-.03-.03-.06-.05-.09-.08-.08-.07-.16-.14-.23-.21-.1-.09-.21-.19-.31-.28-.07-.06-.13-.13-.19-.2-23.91-19.03-75.23-15.02-83.97-4.02-5.93,7.46-6.94,14.65.26,20.83,7.59,6.52,4.95,7.79,10.03-.47,13.48-21.94,55.97-28.08,76.13-13.87-.05-.05-.1-.12-.15-.2Z"/><path class="cls-13" d="m318.33,49.6c.76-11.77-5.82-24.28-14.63-33.13-.03-.02-.05-.04-.08-.06-.04-.03-.06-.07-.09-.11-.96-.95-1.93-1.88-2.94-2.74l-8.9-2.79c10.4,5.77,14.28,13.12,17.49,26.93,3.22,13.81-14.09,36.02-22.88,43.12,9.17-.1,9.08-2.91,14.85-.76,10.29-5.4,16.32-17.33,17.17-30.45Z"/><path class="cls-9" d="m286.74,80.46c10.47-2.77,26.54-3.23,39.02-5.54,3.64-.67,8.82,4.74,10.08,7.36,2.25,4.67,1.13,3.65-2.58,3.58-11.07-.21-27.68,5.07-37.95,5.82-2.69.2-5.45-1.27-7.12-3.77-1.66-2.5-2.92-4.32-1.46-7.45Z"/><path class="cls-11" d="m336.92,85.86c-3.53,11.65-10.22,22.6-18.87,29.76-1.98,1.64-4.91.73-7.08-.68-1.98-1.29-4.1-4.46-4.79-7.35,5.3.38,10.41-2.48,14.32-6.51,3.91-4.04,6.7-10.06,9.55-15.15,2.21-.21,4.57-.22,6.88-.07Z"/></svg>