<?xml version="1.0" encoding="UTF-8"?><svg id="Layer_1" xmlns="http://www.w3.org/2000/svg" width="372.57" height="503.82" xmlns:xlink="http://www.w3.org/1999/xlink" viewBox="0 0 372.57 503.82"><defs><style>.cls-1{fill:none;}.cls-2{clip-path:url(#clippath);}.cls-3{fill:#fcf0ca;}.cls-4{fill:#eff7cb;}.cls-5{fill:#a7d7c9;}.cls-6{fill:#74aa4b;}.cls-7{clip-path:url(#clippath-1);}.cls-8{clip-path:url(#clippath-3);}.cls-9{clip-path:url(#clippath-2);}.cls-10{fill:url(#radial-gradient-2);}.cls-11{opacity:.87;}.cls-12{fill:url(#radial-gradient);}</style><clipPath id="clippath"><rect class="cls-1" x="39.79" y="56.77" width="138.13" height="420.73"/></clipPath><clipPath id="clippath-1"><rect class="cls-1" x="177.92" y="56.77" width="138.13" height="420.73"/></clipPath><clipPath id="clippath-2"><rect class="cls-1" x="52.67" y="89.05" width="125.24" height="86.27"/></clipPath><radialGradient id="radial-gradient" cx="-736.28" cy="1189.68" fx="-736.28" fy="1189.68" r="60.61" gradientTransform="translate(913.66 -1568.17) scale(1 1.45)" gradientUnits="userSpaceOnUse"><stop offset="0" stop-color="#ffdc73"/><stop offset="1" stop-color="#ffeaab"/></radialGradient><clipPath id="clippath-3"><rect class="cls-1" x="177.91" y="89.05" width="125.24" height="86.27"/></clipPath><radialGradient id="radial-gradient-2" cx="-736.28" cy="1189.68" fx="-736.28" fy="1189.68" r="60.61" gradientTransform="translate(-557.84 -1568.17) rotate(-180) scale(1 -1.45)" xlink:href="#radial-gradient"/></defs><g><ellipse class="cls-4" cx="308.17" cy="51.89" rx="54.1" ry="51.89"/><path class="cls-6" d="m304.49,55.37c-1.56,11.96-2.36,27.55-5.34,41.92-5.32-1.16-10.64-2.97-17.62-7.19-5.52-3.33-12.04-11.65-13.98-16.81,10.87-7.22,26.66-12.14,36.94-17.92Z"/><path class="cls-6" d="m310.63,55.37c-.94,12.04-3.43,27.47-3.43,42.16,5.7,0,11.52-.64,19.56-3.28,6.36-2.08,14.8-8.83,17.88-13.47-9.6-9.38-24.71-17.56-34.01-25.4Z"/><path class="cls-6" d="m299.54,52.64c-11.87,3.87-21.6,8.47-35.91,13.14-2.24-4.09-3.83-8.08-3.55-16.06.22-6.3,4.33-15.04,7.97-19.25,10.53,5.41,21.2,16.42,31.49,22.17Z"/><path class="cls-6" d="m304.73,50.29c.94-12.04,3.43-27.47,3.43-42.16-5.7,0-11.52.64-19.56,3.28-6.36,2.08-14.8,8.83-17.88,13.47,9.6,9.38,24.71,17.56,34.01,25.4Z"/><path class="cls-6" d="m311.51,50.29c1.56-11.96,2.36-27.55,5.34-41.92,5.32,1.16,10.64,2.97,17.62,7.19,5.52,3.33,12.04,11.65,13.98,16.81-10.87,7.22-26.66,12.14-36.94,17.92Z"/><path class="cls-6" d="m316.35,52.98c11.69-4.37,21.2-9.37,35.29-14.64,2.42,4,4.18,7.91,4.27,15.89.07,6.31-4,14-7.45,18.35-10.77-4.96-21.56-14.29-32.11-19.61Z"/></g><g class="cls-11"><g class="cls-2"><path class="cls-5" d="m181.21,63.36c-43.93,0-85.34-3.22-127.5-6.58-19.72,23.13-17.32,52.89-.12,71.39,21.12,22.73,44.92,38.82,76.26,52.87,52.23,72.46,36.61,156.21,31.06,233.31-1.04,14.47-29.69,17.9-38.68,18.85-14.07,1.48-28.82,7.21-37.94,16.2-9.12,8.99-4.96,28.05,7.93,28.1,31.39.12,56.7-1.76,88.09-1.63-2.83-138.6,3.71-276.11.92-412.51Z"/></g><g class="cls-7"><path class="cls-5" d="m174.62,63.36c43.93,0,85.34-3.22,127.5-6.58,19.72,23.13,17.32,52.89.12,71.39-21.12,22.73-44.92,38.82-76.26,52.87-52.23,72.46-36.61,156.21-31.06,233.31,1.04,14.47,29.69,17.9,38.68,18.85,14.07,1.48,28.82,7.21,37.94,16.2,9.12,8.99,4.96,28.05-7.93,28.1-31.39.12-56.7-1.76-88.09-1.63,2.83-138.6-3.71-276.11-.92-412.51Z"/></g></g><g><g class="cls-9"><path class="cls-12" d="m187.79,99.74c-41.47-1.6-94.23-3.54-134.74-10.69-4.27,29.53,28.22,50.12,52.08,65.53,23.87,15.41,54.15,20.74,82.71,20.74,0-27.52,1.9-46.98-.06-75.58Z"/></g><g class="cls-8"><path class="cls-10" d="m168.03,99.74c41.47-1.6,94.23-3.54,134.74-10.69,4.27,29.53-28.22,50.12-52.08,65.53s-54.15,20.74-82.71,20.74c0-27.52-1.9-46.98.06-75.58Z"/></g></g><path class="cls-3" d="m52.67,91.12c.15-2.69-.35-1.72.5-8.91,10.78-4.69,42.87.25,78.04,3.2,19.22,1.61,63.93,4.38,78.29,3.64,17.73-.92,71.96-5.68,89.02-6.57,5.38-.28,3.34-2.25,4.66,9-95.63,11.38-169.47,10.16-250.51-.36Z"/></svg>