<?xml version="1.0" encoding="UTF-8"?><svg id="Layer_1" xmlns="http://www.w3.org/2000/svg" width="372.57" height="503.82" xmlns:xlink="http://www.w3.org/1999/xlink" viewBox="0 0 372.57 503.82"><defs><style>.cls-1,.cls-2{fill:none;}.cls-3{clip-path:url(#clippath);}.cls-4{fill:#684629;}.cls-5{fill:#aedacd;}.cls-6{fill:#d6ceba;}.cls-7{fill:#35271e;}.cls-8{clip-path:url(#clippath-1);}.cls-9{clip-path:url(#clippath-3);}.cls-10{clip-path:url(#clippath-2);}.cls-2{stroke:#35271e;stroke-miterlimit:10;}</style><clipPath id="clippath"><rect class="cls-1" x="84.38" y="65.8" width="110.67" height="367.06"/></clipPath><clipPath id="clippath-1"><rect class="cls-1" x="195.05" y="65.8" width="110.67" height="367.06"/></clipPath><clipPath id="clippath-2"><rect class="cls-1" x="91.12" y="116" width="103.93" height="71.74"/></clipPath><clipPath id="clippath-3"><rect class="cls-1" x="195.05" y="116" width="103.93" height="71.74"/></clipPath></defs><g><g class="cls-3"><path class="cls-5" d="m198.28,65.8c-33.55,0-74.16,4.81-100.9,16-14.27,5.97-13.56,16.01-12.51,33.27,1.04,17.13,11.15,24.36,26.38,32.7,15.23,8.34,39.59,15.44,54.04,25.03,14.44,9.59,23.78,24.65,23.66,41.81-.42,61.91-.33,116.32-.75,178.23-10.52.36-27.25.84-39.16,2.35-11.88,1.51-30.73,5.11-37.17,12.64-2.65,3.1-1.57,11.53.25,13.1,15.83,13.58,62.82,12.19,84.26,11.54,0-124.19,2.52-242.98,1.89-366.68Z"/></g><g class="cls-8"><path class="cls-5" d="m191.82,65.8c33.55,0,74.16,4.81,100.9,16,14.27,5.97,13.56,16.01,12.51,33.27-1.04,17.13-11.15,24.36-26.38,32.7-15.23,8.34-39.59,15.44-54.04,25.03-14.44,9.59-23.78,24.65-23.66,41.81.42,61.91.33,116.32.75,178.23,10.52.36,27.25.84,39.16,2.35,11.88,1.51,30.73,5.11,37.17,12.64,2.65,3.1,1.57,11.53-.25,13.1-15.83,13.58-62.82,12.19-84.26,11.54,0-124.19-2.52-242.98-1.89-366.68Z"/></g></g><g><g class="cls-10"><path class="cls-7" d="m195.05,123.71c-35.04,0-74.05-2.15-103.93-7.7,0,13.87,10.65,19.83,24.4,26.62,13.11,6.48,28.89,13.01,43.06,18.3,13.02,4.86,23.33,13.81,29.44,26.69,3.14,0,2.78.13,7.04.13,0-25.25,0-36.12,0-64.04Z"/></g><g class="cls-9"><path class="cls-7" d="m195.05,123.71c35.04,0,74.05-2.15,103.93-7.7,0,13.87-10.65,19.83-24.4,26.62s-28.89,13.01-43.06,18.3c-13.02,4.86-23.33,13.81-29.44,26.69-3.14,0-2.78.13-7.04.13,0-25.25,0-36.12,0-64.04Z"/></g></g><rect class="cls-7" x="140.5" y="229.37" width=".86" height="1.07"/><rect class="cls-7" x="191.05" y="123.75" width="8" height="64"/><path class="cls-4" d="m91.19,116.31c-.31-3.87-.54-7.24-.54-12.55,75.73,17.26,130.62,19.23,208.66.37,0,4.39-.12,10.85-.34,11.95-81.71,19.74-121.15,19.97-207.78.22Z"/><path class="cls-6" d="m90.6,103.76c-.64-8.22,5.19-14.63,13.68-17.3,53.22-16.72,117.17-16.9,175.14-3.08,11.18,2.67,21.44,9.18,19.83,20.75-67.02,17.82-142.52,19.81-208.66-.37Z"/><ellipse class="cls-4" cx="248.47" cy="92.77" rx="6" ry="3.05"/><ellipse class="cls-4" cx="238.22" cy="99.54" rx="6" ry="3.05"/><ellipse class="cls-4" cx="254.47" cy="101.29" rx="6" ry="3.05"/><line class="cls-2" x1="248.77" y1="101.29" x2="260.17" y2="101.29"/><line class="cls-2" x1="242.8" y1="92.77" x2="254.11" y2="92.77"/><line class="cls-2" x1="232.54" y1="99.54" x2="243.94" y2="99.54"/></svg>