<?xml version="1.0" encoding="UTF-8"?><svg id="a" xmlns="http://www.w3.org/2000/svg" width="212.92" height="215.43" viewBox="0 0 212.92 215.43"><defs><style>.b{fill:#b9b051;}.c{fill:#cbe5dc;}.d{fill:#e38672;}.e{stroke-width:.1px;}.e,.f,.g{fill:none;stroke:#e9e8d3;stroke-miterlimit:10;}.f{stroke-width:.2px;}.g{stroke-width:.5px;}</style></defs><circle class="d" cx="100.71" cy="106.19" r="90.27"/><path class="c" d="M46.43,57.98l108.39-2.03c1.57,19.54-8.59,39.57-25.28,49.85-16.69,10.28-39.15,10.35-55.9,.16-16.75-10.19-27.02-30.16-27.22-47.99Z"/><path class="c" d="M98.83,113.4c.38,14.96,.81,31.82,1.19,46.78l4.3-.21c-.6-15.46-.65-31.11-.17-46.58"/><path class="c" d="M102.56,159.65c-10.24,3.34-23.3,7.23-33.54,10.57l.18,7.45c22.81-1.84,45.77-1.76,68.57,.24-.07-2.33-.14-4.67-.15-7.21-11.44-2.75-19.8-7.21-35.06-11.05Z"/><path class="b" d="M63.44,78.2c26.89,.62,53.8,.63,80.7,.03-6.45,16.34-23.44,27.93-41.01,27.95-17.57,.02-40.44-13.63-39.43-28.59"/><circle class="g" cx="73.98" cy="83.35" r="1.41"/><circle class="f" cx="78.73" cy="85.44" r=".68"/><circle class="e" cx="76.2" cy="87.91" r=".27"/><circle class="g" cx="86" cy="93.24" r="1.41"/><circle class="f" cx="90.84" cy="91.36" r=".68"/><circle class="e" cx="90.79" cy="94.9" r=".27"/><circle class="f" cx="101.63" cy="83.57" r=".68"/><circle class="e" cx="105.2" cy="88.46" r=".27"/><circle class="g" cx="109.83" cy="97.28" r="1.2"/><circle class="g" cx="116.47" cy="83.2" r="1.41"/><circle class="f" cx="121.31" cy="81.32" r=".68"/><circle class="e" cx="121.26" cy="84.86" r=".27"/><circle class="g" cx="124.46" cy="91.64" r="1.41"/><circle class="f" cx="125.22" cy="86.51" r=".68"/><circle class="e" cx="128.27" cy="88.3" r=".27"/><circle class="g" cx="132.9" cy="87.31" r="1.41"/><circle class="f" cx="131.41" cy="82.34" r=".68"/><circle class="e" cx="134.93" cy="82.67" r=".27"/></svg>