<?xml version="1.0" encoding="UTF-8"?><svg id="a" xmlns="http://www.w3.org/2000/svg" width="1510.79" height="708.21" viewBox="0 0 1510.79 708.21"><defs><style>.c{fill:#b9b49c;}.d{fill:#b9b051;}.e{fill:#cbe5dc;}.f{fill:#c9b077;}.g{stroke-width:.1px;}.g,.h,.i{fill:none;stroke:#e9e8d3;stroke-miterlimit:10;}.h{stroke-width:.2px;}.j{isolation:isolate;}.i{stroke-width:.5px;}</style></defs><path class="e" d="M1077.81,133.9l219.59-4.1c3.18,39.59-17.4,80.16-51.21,100.99-33.81,20.83-79.31,20.96-113.24,.32-33.93-20.64-54.74-61.1-55.14-97.21Z"/><path class="e" d="M1183.95,246.18c.77,30.3,1.65,64.47,2.42,94.77l8.7-.42c-1.21-31.32-1.32-63.03-.34-94.37"/><path class="e" d="M1191.51,339.86c-20.75,6.76-47.2,14.65-67.95,21.41l.36,15.09c46.21-3.72,92.73-3.56,138.92,.49-.14-4.73-.27-9.46-.31-14.61-23.18-5.58-40.11-14.61-71.02-22.39Z"/><path class="d" d="M1112.26,174.86c54.48,1.26,108.99,1.28,163.48,.06-13.06,33.11-47.49,56.58-83.08,56.63-35.59,.05-81.92-27.61-79.89-57.92"/><g><path class="f" d="M352.92,251.8c16.21-10.11,30.86-21.59,37.57-37.38,3.63-8.73,4.62-17.66,4-26.58-.69-13.28-6.28-27.64-20.68-38.65-12.66-9.71-28.92-15.18-42.76-17.45-26.43-4.34-50.18-1.17-75.24-1.18,0,.24,.02,.47,.03,.71,3.17,2.96,6.66,14.31,7.74,17.01,2.9,7.38,5.28,14.88,6.91,22.43,3.29,15.09,3.29,30.39,.25,45.6-1.86,9.28-4.71,18.49-7.63,27.7-2.05,6.23-7.07,22.71-8.51,29.02-4.3,18.01-5.78,37.97-1.25,55.53,.15,0,.04-1.43,.19-1.43,.05,0,.1-.01,.15-.02,0,.48,0,.96,0,1.45,0,0,43.74,0,43.74,0-.55-.02-3.19-6.43-3.55-7.17-3.92-7.96-7.22-15.67-8.14-24.26-1.05-9.9,.7-20.4,5.38-29.78,1.75-3.52,5.11-7.8,9.45-9,5.48-1.51,11.47-.12,16.79-.32,5.38,21.7,9.37,44.07,18.61,69.19,15.41-.02,30.82-.04,46.23-.06-.98-.25-10.78-21.01-17.39-39.55-7.11-18.89-11.02-35.56-11.9-35.81Zm-5.34-43.74c-.41,4.35-2.91,8.19-7.35,11.53-4.45,3.36-9.3,5.12-14.58,5.25-8.54,.21-17.2,.45-25.99,.72,1.67-20.96,2.29-41.67-.28-62.7,8.81-.02,17.53-.03,26.16-.03,2.68,0,5.27,.46,7.85,1.35,2.55,.89,4.9,2.11,7,3.64,2.12,1.55,3.89,3.32,5.28,5.29,1.39,1.97,2.19,4.06,2.36,6.23,.74,9.62,.45,19.16-.45,28.72Z"/><path class="f" d="M460.33,163.8c3.06,10.38,3.62,20.38,2.66,30.25,16.55,.22,32.74,.5,48.66,.81-1.47,10.18-4.67,20.15-8.36,30.23-15.44-.25-31.13-.43-47.14-.54-6.31,20.13-14.82,40.79-17.31,64.09,18.82-.13,37.48-.15,56.06-.1-.72,11.76,.58,24.27,5.16,37.85-32.93,0-65.86,.02-98.82,.06-11.35-78.54,52.23-127.66,.73-196.44,4.08,0,8.15,0,12.23,0,9.17,0,18.35,0,27.51,0,19.87,0,39.73,.01,59.58,.02,10.13,12.3,16.03,23.73,18.99,34.64-19.66-.32-39.62-.62-59.96-.89Z"/><path class="f" d="M635.9,326.19c-6.16-7.25-10.97-14.19-14.69-20.87-19.33-.19-38.58-.35-57.78-.48-.1,6.79,.7,13.86,2.6,21.29-13.72,0-27.43-.01-41.14-.02-16.99-80.79,88.86-120.24,48-196.04,19.92,0,39.83,.01,59.74,.02,66.38,78.44-24.68,119.6,44.49,196.15-13.74-.02-27.48-.03-41.21-.05Zm-63.24-60.05c12.71,.25,25.42,.52,38.17,.81-1.47-24.16,6.6-45.95,5.98-69.47-12.2,23.17-32.13,44.51-44.15,68.66Z"/><path class="f" d="M849.75,130.1c15.4,79.73-54.71,127.29-1.57,196.6-13.28-.01-26.55-.03-39.81-.04-23.07-28.67-23.68-53.08-17.67-77.31-11.86,24.17-17.79,48.33-.44,77.29-9.99-.01-19.97-.02-29.95-.04-29.94-29.79-34.81-54.74-32.68-79.09-7.81,24.23-9.31,48.97,14.3,79.07-13.22-.02-26.44-.03-39.65-.05-55.84-75.58,42.15-115.89,1.85-196.43,13.22,0,26.43,0,39.65,0,28.4,42.16,20.24,73.89,19.66,105.19,21.83-30.83,47.31-63.09,46.65-105.2,13.22,0,26.43,0,39.65,0Z"/><path class="f" d="M957.67,225.26c-3.96,33.84-5.4,66.67,7.56,101.53-13.37,0-26.72-.01-40.05-.02-19.83-35.3-16.95-67.12-10.59-100.43-14.4-29.42-19.89-59.13-43.59-96.25,15.42,0,30.84-.01,46.27-.02,11.35,21.76,17.73,41.14,24.7,59.72,12.77-19.22,23.78-39.39,32.92-59.76,15.43-.01,30.87-.03,46.31-.04-17.85,31.19-38.97,64.67-63.52,95.28Z"/></g><path class="f" d="M237.73,499.11c-.37,7.96-2.03,15.41-4.98,22.36-2.96,6.94-7.2,13.01-12.74,18.19-5.54,5.18-12.32,9.3-20.35,12.36-8.03,3.05-17.12,4.68-27.28,4.86H96.38v-203.28h76c10.52,.19,19.89,1.94,28.1,5.28,8.21,3.33,15.09,7.73,20.63,13.19,5.54,5.46,9.74,11.85,12.6,19.16,2.86,7.32,4.29,15.13,4.29,23.46v84.42h-.28Zm-67.36,17.49c5.52,0,10.4-2.08,14.63-6.25,4.24-4.17,6.35-9.03,6.35-14.58v-81.09c0-5.55-2.12-10.41-6.35-14.58-4.24-4.17-9.11-6.25-14.63-6.25h-27.34v122.74h27.34Z"/><path class="f" d="M326.15,510.97h-21.22v44.71h-46.65v-203.28h74.01c9.65-.55,18.5,.6,26.57,3.47,8.07,2.87,15.08,6.99,21.01,12.36,5.94,5.37,10.62,11.66,14.05,18.88,3.43,7.22,5.43,14.81,5.98,22.77v39.99c0,9.81-2.1,18.93-6.29,27.35-4.19,8.43-10.2,15.51-18.02,21.24l33.19,57.21h-54.43l-28.21-44.71Zm27.1-97.55c0-2.77-.61-5.39-1.82-7.89-1.21-2.49-2.79-4.7-4.75-6.64-1.96-1.93-4.19-3.46-6.7-4.56-2.52-1.11-5.17-1.66-7.96-1.66h-27.09v78.03h27.09c5.58,0,10.52-2.07,14.8-6.23,4.28-4.15,6.43-8.99,6.43-14.53v-36.53Z"/><path class="f" d="M436.28,487.77v-134.18h46.65v134.18h-46.65Z"/><path class="f" d="M669.89,352.34v203.28h-46.65l-48.32-98.03v98.03l-46.65-61.86v-141.42h46.93l48.04,102.2v-102.2h46.65Z"/><path class="f" d="M792.55,443.98l56.93,111.64h-53.87l-31.66-65.54-13.33,21.38v44.15h-46.65v-203.28h46.65v73.59l44.99-73.59h53.87l-56.93,91.64Z"/><path class="f" d="M950.45,436.63c7.56,3.28,14.21,7.75,19.95,13.39,5.74,5.65,10.25,12.26,13.53,19.81,3.28,7.56,4.92,15.71,4.92,24.46s-1.64,16.67-4.92,24.32c-3.28,7.65-7.79,14.3-13.53,19.95-5.74,5.65-12.39,10.11-19.95,13.39-7.56,3.28-15.72,4.92-24.46,4.92h-13.94c-8.75,0-16.9-1.64-24.46-4.92-7.56-3.28-14.17-7.74-19.81-13.39-5.65-5.65-10.11-12.3-13.39-19.95-3.28-7.65-4.92-15.76-4.92-24.32h42.08c0,5.65,1.96,10.48,5.87,14.48,3.92,4.01,8.79,6.01,14.62,6.01h13.94c5.83,0,10.75-2,14.76-6.01,4.01-4.01,6.01-8.84,6.01-14.48s-2.01-10.75-6.01-14.76c-4.01-4.01-8.93-6.01-14.76-6.01h-13.94c-8.75,0-16.9-1.5-24.46-4.51-7.56-3.01-14.17-7.15-19.81-12.43-5.65-5.28-10.11-11.57-13.39-18.86-3.28-7.29-4.92-15.3-4.92-24.05s1.64-16.67,4.92-24.32c3.28-7.65,7.74-14.3,13.39-19.95,5.65-5.64,12.25-10.11,19.81-13.39,7.56-3.28,15.71-4.92,24.46-4.92h13.94c8.74,0,16.9,1.64,24.46,4.92,7.56,3.28,14.21,7.75,19.95,13.39,5.74,5.65,10.25,12.3,13.53,19.95,3.28,7.65,4.92,15.76,4.92,24.32h-42.09c0-5.64-2.01-10.47-6.01-14.48-4.01-4.01-8.93-6.01-14.76-6.01h-13.94c-5.83,0-10.71,2.01-14.62,6.01-3.92,4.01-5.87,8.84-5.87,14.48s1.96,10.3,5.87,13.39c3.92,3.1,8.79,4.65,14.62,4.65h13.94c8.74,0,16.9,1.64,24.46,4.92Z"/><path class="f" d="M143.36,169.77v121.61h.17v-121.61h-.17Z"/><line class="f" x1="285.46" y1="327" x2="254.77" y2="326.86"/><path class="f" d="M236.24,167.16c-2.93-7.25-7.22-13.57-12.9-19-5.67-5.39-12.71-9.76-21.13-13.07s-18.01-5.04-28.79-5.23H95.58v201.41h77.84c10.41-.18,19.73-1.78,27.94-4.82,8.23-3.02,15.18-7.09,20.86-12.24,5.65-5.13,10.01-11.14,13.05-18.03,3.02-6.87,4.71-14.24,5.09-22.14h.29v-83.65c0-8.25-1.47-16-4.4-23.24Zm-43.39,103.58c0,5.51-2.16,10.31-6.49,14.44-3.14,2.98-6.62,4.9-10.45,5.71-1.47,.32-2.97,.49-4.54,.49h-28v-121.61h28c3.58,0,6.91,.83,9.97,2.49,1.76,.95,3.43,2.19,5.03,3.69,4.33,4.13,6.49,8.95,6.49,14.44v80.35Z"/><path class="f" d="M1146.19,361.03c-.38-1.09-.89-2.14-1.61-3.05-6-7.64-13.02-10.99-21.1-8.1-8.56,3.07-14.6,10.59-20.18,17.76l-33.85,43.52c-17.29,22.23-34.68,44.61-47.66,69.6-4.93,9.49-9.25,19.53-10.32,30.17-1.06,10.64,1.52,22.05,8.9,29.79,11.02,11.56,28.99,12.13,44.96,11.72,21.89-.56,43.77-1.48,65.65-2.4,33.53-1.41,67.07-2.81,100.6-4.22,9.35-.39,19.24-.95,27-6.18,7.27-4.89,11.58-13.3,13.37-21.88,1.79-8.58,1.34-17.45,.88-26.2-1.51-28.71-3.01-57.41-4.52-86.12-.4-7.63-.86-15.49-4.15-22.38s-10.17-12.66-17.8-12.24c-7.39,.4-13.49,6.49-16.19,13.38-2.7,6.89-2.69,14.5-2.64,21.9l.42,60.78c.05,6.74-.03,13.92-3.73,19.56-3.64,5.54-10.09,8.5-16.37,10.64-35.85,12.26-77.4,6.38-108.44-15.34-2.8-1.96-5.62-4.17-6.98-7.3-2.92-6.72,1.98-14.08,6.6-19.77,10.48-12.89,20.95-25.78,31.43-38.66,7.44-9.15,15.04-18.6,18.58-29.84,3.29-10.45-.33-17.95-2.86-25.15Z"/><path class="f" d="M1272.81,496.76c34-20.23,71.14-38.82,107.74-53.86,10.59-4.35,22.44-8.51,33.2-4.61,7.79,2.82,14.11,10.98,12.46,19.1-1.1,5.42-5.28,9.62-9.44,13.25-17.91,15.62-124.34,48.38-147.19,54.91"/><path class="f" d="M1294.97,502.71l115.71,2.75c8.58,.2,17.54,.51,25.07,5.08,7.54,4.57,13.03,14.83,9.99,23.73-3.8,11.1-16.99,11.84-27.69,11.98-110.17,1.44-75.19-1.91-185.35-.46"/><path d="M1439.31,542.24c-5.08-6.69-15.34-11.72-23.59-10.11-8.24,1.61-14.91,6.24-17.1,14.35"/><path d="M1425.89,458.66c-6.73-.64-15.24,1.44-19.94,6.3-4.7,4.86-4.54,10.24-3.69,16.94"/><path d="M1260.35,378.15c-6.06,3.35-7.72,14.24-3.8,19.94,4.14,6.01,5.82,5.54,11.83,8.97"/><path d="M1123.84,349.77c.11,6.06-2.32,12.13-6.6,16.43s-12.2,7.09-18.27,7.01l24.86-23.44Z"/><path class="f" d="M1271.35,464.98c19.12-18.83,38.26-37.66,58.32-55.49,5.31-4.71,11.06-9.54,18.07-10.7,7-1.15,15.38,3.03,16.08,10.09,.52,5.24-3.11,9.89-6.57,13.86-17.58,20.21-65.95,67.06-85.47,85.4"/><path d="M1362.91,408.98c-4.09,1.13-7.68,3.96-9.75,7.67-2.06,3.71-2.57,8.25-1.37,12.33"/><circle class="i" cx="1133.62" cy="185.29" r="2.86"/><circle class="h" cx="1143.24" cy="189.53" r="1.39"/><circle class="g" cx="1138.11" cy="194.54" r=".55"/><circle class="i" cx="1157.97" cy="205.33" r="2.86"/><circle class="h" cx="1167.77" cy="201.53" r="1.39"/><circle class="g" cx="1167.68" cy="208.7" r=".55"/><circle class="h" cx="1189.64" cy="185.74" r="1.39"/><circle class="g" cx="1196.86" cy="195.65" r=".55"/><circle class="i" cx="1206.24" cy="213.52" r="2.44"/><circle class="i" cx="1219.7" cy="184.99" r="2.86"/><circle class="h" cx="1229.5" cy="181.19" r="1.39"/><circle class="g" cx="1229.4" cy="188.36" r=".55"/><circle class="i" cx="1235.88" cy="202.09" r="2.86"/><circle class="h" cx="1237.42" cy="191.69" r="1.39"/><circle class="g" cx="1243.61" cy="195.32" r=".55"/><circle class="i" cx="1252.98" cy="193.33" r="2.86"/><circle class="h" cx="1249.96" cy="183.26" r="1.39"/><circle class="g" cx="1257.1" cy="183.91" r=".55"/><g id="b" class="j" transform="translate(0 42)"><g class="j"><path class="c" d="M99.66,571.8h8.68c9.96,0,14.8,5.68,14.8,14v.36c0,8.32-4.84,14.24-14.88,14.24h-8.6v-28.59Zm8.44,24.4c6.4,0,9.48-3.68,9.48-10v-.32c0-6.16-2.8-9.88-9.52-9.88h-3.08v20.2h3.12Z"/><path class="c" d="M128.22,571.8h9.6c6.28,0,10.68,2.56,10.68,8.4v.16c0,4.48-2.8,6.76-6.36,7.68l8.04,12.36h-5.76l-7.48-11.56h-3.4v11.56h-5.32v-28.59Zm9.6,13.24c3.56,0,5.44-1.52,5.44-4.56v-.16c0-3.28-2.04-4.4-5.44-4.4h-4.28v9.12h4.28Z"/><path class="c" d="M154.58,571.8h5.36v28.59h-5.36v-28.59Z"/><path class="c" d="M166.7,571.8h6.36l12.04,20.68v-20.68h4.84v28.59h-5.52l-12.88-21.92v21.92h-4.84v-28.59Z"/><path class="c" d="M196.5,571.8h5.32v12.96l10.96-12.96h5.72l-11.84,13.64,12.44,14.96h-6.28l-11-13.36v13.36h-5.32v-28.59Z"/><path class="c" d="M220.14,591.51h5.12c.36,2.88,1.52,5.28,6.36,5.28,3.16,0,5.4-1.76,5.4-4.4s-1.32-3.64-5.96-4.4c-6.84-.92-10.08-3-10.08-8.36,0-4.68,4-8.2,9.96-8.2s9.84,2.8,10.4,8.28h-4.88c-.52-3-2.24-4.28-5.52-4.28s-4.92,1.56-4.92,3.76c0,2.32,.96,3.48,5.92,4.2,6.72,.92,10.2,2.84,10.2,8.56,0,4.96-4.2,8.84-10.52,8.84-7.8,0-11.08-3.88-11.48-9.28Z"/><path class="c" d="M256.82,571.8h9.6c6.28,0,10.68,2.56,10.68,8.4v.16c0,4.48-2.8,6.76-6.36,7.68l8.04,12.36h-5.76l-7.48-11.56h-3.4v11.56h-5.32v-28.59Zm9.6,13.24c3.56,0,5.44-1.52,5.44-4.56v-.16c0-3.28-2.04-4.4-5.44-4.4h-4.28v9.12h4.28Z"/><path class="c" d="M283.02,571.8h17.88v4.2h-12.56v7.84h10.08v4h-10.08v8.36h13.24v4.2h-18.56v-28.59Z"/><path class="c" d="M304.54,586.28v-.32c0-8.6,5.92-14.6,13.88-14.6,6.56,0,11.64,3.28,12.28,10h-5.4c-.6-3.8-2.72-5.76-6.84-5.76-5.04,0-8.32,3.92-8.32,10.32v.32c0,6.44,3.08,10.24,8.36,10.24,3.96,0,6.76-2,7.32-6.04h5.2c-.84,6.88-5.72,10.36-12.52,10.36-8.96,0-13.96-5.72-13.96-14.52Z"/><path class="c" d="M335.78,571.8h5.36v28.59h-5.36v-28.59Z"/><path class="c" d="M347.9,571.8h9.2c6.4,0,10.6,2.84,10.6,8.84v.16c0,6.04-4.36,8.72-10.48,8.72h-4v10.88h-5.32v-28.59Zm9.2,13.88c3.52,0,5.4-1.72,5.4-4.88v-.16c0-3.4-2-4.72-5.4-4.72h-3.88v9.76h3.88Z"/><path class="c" d="M372.42,571.8h5.36v28.59h-5.36v-28.59Z"/><path class="c" d="M384.54,571.8h17.88v4.2h-12.56v7.84h10.08v4h-10.08v8.36h13.24v4.2h-18.56v-28.59Z"/><path class="c" d="M406.18,591.51h5.12c.36,2.88,1.52,5.28,6.36,5.28,3.16,0,5.4-1.76,5.4-4.4s-1.32-3.64-5.96-4.4c-6.84-.92-10.08-3-10.08-8.36,0-4.68,4-8.2,9.96-8.2s9.84,2.8,10.4,8.28h-4.88c-.52-3-2.24-4.28-5.52-4.28s-4.92,1.56-4.92,3.76c0,2.32,.96,3.48,5.92,4.2,6.72,.92,10.2,2.84,10.2,8.56,0,4.96-4.2,8.84-10.52,8.84-7.8,0-11.08-3.88-11.48-9.28Z"/><path class="c" d="M442.86,571.8h17.72v4.24h-12.4v8.52h9.76v4.12h-9.76v11.72h-5.32v-28.59Z"/><path class="c" d="M463.38,586.28v-.32c0-8.36,6-14.56,14.48-14.56s14.4,6.04,14.4,14.44v.32c0,8.36-5.72,14.64-14.4,14.64s-14.48-6.28-14.48-14.52Zm23.36-.08v-.32c0-5.88-3.28-10.24-8.88-10.24s-8.92,4.12-8.92,10.28v.32c0,6.24,3.8,10.28,9,10.28s8.8-4.12,8.8-10.32Z"/><path class="c" d="M497.38,571.8h9.6c6.28,0,10.68,2.56,10.68,8.4v.16c0,4.48-2.8,6.76-6.36,7.68l8.04,12.36h-5.76l-7.48-11.56h-3.4v11.56h-5.32v-28.59Zm9.6,13.24c3.56,0,5.44-1.52,5.44-4.56v-.16c0-3.28-2.04-4.4-5.44-4.4h-4.28v9.12h4.28Z"/><path class="c" d="M540.46,571.8h6.96l9.44,28.59h-5.52l-2.28-7.08h-10.92l-2.24,7.08h-5l9.56-28.59Zm-1.08,17.64h8.44l-4.2-13.28-4.24,13.28Z"/><path class="c" d="M561.22,571.8h5.32v24.36h12.2v4.24h-17.52v-28.59Z"/><path class="c" d="M583.26,571.8h5.32v24.36h12.2v4.24h-17.52v-28.59Z"/><path class="c" d="M613.38,586.28v-.32c0-8.36,6-14.56,14.48-14.56s14.4,6.04,14.4,14.44v.32c0,8.36-5.72,14.64-14.4,14.64s-14.48-6.28-14.48-14.52Zm23.36-.08v-.32c0-5.88-3.28-10.24-8.88-10.24s-8.92,4.12-8.92,10.28v.32c0,6.24,3.8,10.28,9,10.28s8.8-4.12,8.8-10.32Z"/><path class="c" d="M645.94,586.28v-.32c0-8.6,5.92-14.6,13.88-14.6,6.56,0,11.64,3.28,12.28,10h-5.4c-.6-3.8-2.72-5.76-6.84-5.76-5.04,0-8.32,3.92-8.32,10.32v.32c0,6.44,3.08,10.24,8.36,10.24,3.96,0,6.76-2,7.32-6.04h5.2c-.84,6.88-5.72,10.36-12.52,10.36-8.96,0-13.96-5.72-13.96-14.52Z"/><path class="c" d="M675.57,586.28v-.32c0-8.6,5.92-14.6,13.88-14.6,6.56,0,11.64,3.28,12.28,10h-5.4c-.6-3.8-2.72-5.76-6.84-5.76-5.04,0-8.32,3.92-8.32,10.32v.32c0,6.44,3.08,10.24,8.36,10.24,3.96,0,6.76-2,7.32-6.04h5.2c-.84,6.88-5.72,10.36-12.52,10.36-8.96,0-13.96-5.72-13.96-14.52Z"/><path class="c" d="M713.41,571.8h6.96l9.44,28.59h-5.52l-2.28-7.08h-10.92l-2.24,7.08h-5l9.56-28.59Zm-1.08,17.64h8.44l-4.2-13.28-4.24,13.28Z"/><path class="c" d="M731.81,591.51h5.12c.36,2.88,1.52,5.28,6.36,5.28,3.16,0,5.4-1.76,5.4-4.4s-1.32-3.64-5.96-4.4c-6.84-.92-10.08-3-10.08-8.36,0-4.68,4-8.2,9.96-8.2s9.84,2.8,10.4,8.28h-4.88c-.52-3-2.24-4.28-5.52-4.28s-4.92,1.56-4.92,3.76c0,2.32,.96,3.48,5.92,4.2,6.72,.92,10.2,2.84,10.2,8.56,0,4.96-4.2,8.84-10.52,8.84-7.8,0-11.08-3.88-11.48-9.28Z"/><path class="c" d="M759.13,571.8h5.36v28.59h-5.36v-28.59Z"/><path class="c" d="M769.81,586.28v-.32c0-8.36,6-14.56,14.48-14.56s14.4,6.04,14.4,14.44v.32c0,8.36-5.72,14.64-14.4,14.64s-14.48-6.28-14.48-14.52Zm23.36-.08v-.32c0-5.88-3.28-10.24-8.88-10.24s-8.92,4.12-8.92,10.28v.32c0,6.24,3.8,10.28,9,10.28s8.8-4.12,8.8-10.32Z"/><path class="c" d="M803.81,571.8h6.36l12.04,20.68v-20.68h4.84v28.59h-5.52l-12.88-21.92v21.92h-4.84v-28.59Z"/><path class="c" d="M831.85,591.51h5.12c.36,2.88,1.52,5.28,6.36,5.28,3.16,0,5.4-1.76,5.4-4.4s-1.32-3.64-5.96-4.4c-6.84-.92-10.08-3-10.08-8.36,0-4.68,4-8.2,9.96-8.2s9.84,2.8,10.4,8.28h-4.88c-.52-3-2.24-4.28-5.52-4.28s-4.92,1.56-4.92,3.76c0,2.32,.96,3.48,5.92,4.2,6.72,.92,10.2,2.84,10.2,8.56,0,4.96-4.2,8.84-10.52,8.84-7.8,0-11.08-3.88-11.48-9.28Z"/></g></g></svg>