<?xml version="1.0" encoding="UTF-8"?><svg id="Layer_1" xmlns="http://www.w3.org/2000/svg" width="372.57" height="503.82" xmlns:xlink="http://www.w3.org/1999/xlink" viewBox="0 0 372.57 503.82"><defs><style>.cls-1{fill:none;}.cls-2{fill:url(#linear-gradient);}.cls-3{clip-path:url(#clippath);}.cls-4{fill:#fda62a;}.cls-5{fill:#fee8d3;}.cls-6{fill:#fffdec;}.cls-7{fill:#fffdeb;}.cls-8{fill:#ffeb9c;}.cls-9{clip-path:url(#clippath-1);}.cls-10{clip-path:url(#clippath-3);}.cls-11{clip-path:url(#clippath-2);}.cls-12{fill:url(#linear-gradient-3);}.cls-13{fill:url(#linear-gradient-2);}.cls-14{fill:url(#radial-gradient);}.cls-15{fill:#ffefe0;}.cls-15,.cls-16{opacity:.93;}.cls-16{fill:#ffefdb;}</style><clipPath id="clippath"><rect class="cls-1" x="81.02" y="43.99" width="101.63" height="415.92"/></clipPath><clipPath id="clippath-1"><rect class="cls-1" x="182.65" y="43.99" width="101.63" height="415.92"/></clipPath><clipPath id="clippath-2"><rect class="cls-1" x="105.87" y="144.17" width="76.78" height="298.54"/></clipPath><clipPath id="clippath-3"><rect class="cls-1" x="182.65" y="144.17" width="76.78" height="298.54"/></clipPath><linearGradient id="linear-gradient" x1="182.28" y1="134.35" x2="182.28" y2="97.05" gradientUnits="userSpaceOnUse"><stop offset="0" stop-color="#fff3b5"/><stop offset="1" stop-color="#fffef0"/></linearGradient><linearGradient id="linear-gradient-2" x1="230.64" y1="-51.56" x2="315.21" y2="-55.1" gradientTransform="translate(-83.41 111.89) rotate(-5.21) scale(1.08 1.12) skewX(-10.53)" gradientUnits="userSpaceOnUse"><stop offset="0" stop-color="#ffa72b"/><stop offset="1" stop-color="#d98c18"/></linearGradient><radialGradient id="radial-gradient" cx="-975.67" cy="-775.72" fx="-975.67" fy="-775.72" r="22.36" gradientTransform="translate(819.34 3653.54) rotate(41.24) scale(2.5 3.03) skewX(9.62)" gradientUnits="userSpaceOnUse"><stop offset="0" stop-color="#ffa72b"/><stop offset="1" stop-color="#cc6b10"/></radialGradient><linearGradient id="linear-gradient-3" x1="-558.57" y1="-994.25" x2="-558.57" y2="-1010.01" gradientTransform="translate(-140.91 2027.29) rotate(36.4) scale(1.38 1.78)" gradientUnits="userSpaceOnUse"><stop offset="0" stop-color="#ffa72b"/><stop offset="1" stop-color="#db7d18"/></linearGradient></defs><g><g class="cls-3"><path class="cls-5" d="m187.31,459.91c-35.1-1.45-69-4.91-96.79-12.71-3.17-134.4-6.33-268.81-9.5-403.21,28.17,1.54,77.23,3.02,106.29,3.02,1.86,138.08-9.05,275.51,0,412.9Z"/></g><g class="cls-9"><path class="cls-5" d="m177.99,459.91c35.1-1.45,69-4.91,96.79-12.71,3.17-134.4,6.33-268.81,9.5-403.21-28.17,1.54-77.23,3.02-106.29,3.02-1.86,138.08,9.05,275.51,0,412.9Z"/></g></g><g><g class="cls-11"><path class="cls-8" d="m186.17,442.71c-26.52-1.04-52.13-3.52-73.12-9.12-2.39-96.47-4.79-192.94-7.18-289.41,21.28,1.11,58.35,2.17,80.3,2.17,1.41,99.11-6.83,197.76,0,296.37Z"/></g><g class="cls-10"><path class="cls-8" d="m179.13,442.71c26.52-1.04,52.13-3.52,73.12-9.12,2.39-96.47,4.79-192.94,7.18-289.41-21.28,1.11-58.35,2.17-80.3,2.17-1.41,99.11,6.83,197.76,0,296.37Z"/></g></g><path class="cls-2" d="m105.81,156.57c-1.65-22.11-1.37-42.65-3.02-64.75,52.72,3.38,104.61,3.95,158.97-1.02-.66,21.17-1.63,44.3-2.29,65.47-52.5,4.8-105.37,3.4-153.67.3Z"/><path class="cls-7" d="m103.3,99.42c-.25-5.05-.5-6.21-.5-12.2,5.24,8.15,19.76,7.41,26.71.63,2.63-2.57,7.2-1.36,10.06.95,2.86,2.31,4.98,4.25,8.56,5.18,3.54.91,4.3.4,8.28-1.37,5.86-2.59,11.74-7.36,15.8-2.44,3.7,4.49,14.33.76,19.49-1.98,2.1-1.12,3.11-1.79,6.76-.28,3.65,1.51,6.11,5.47,5.82,9.38-32.92,5.27-68.44,5.41-100.98,2.14Z"/><path class="cls-6" d="m261.38,98.57c.46-4.17.67-9,.39-14.56,0-.13.08-.15,0-.04-5.57,7.41-12.34,10.64-17.08,3.99-1.83-2.57-5.33-2.31-7.32,0-1.99,2.31-3.55,2.58-5.73,4.42-.87.73-3.38.49-4.5.02-5.83-2.41-9.15-4.33-13.75-2.12-1.18.57-7.51,1.21-9.45-.71-2.47-2.44-8.25-3.69-10.79-2.18-2.54,1.51-.99,5.14-.78,9.05,22.9,5.27,46.38,5.4,69.02,2.13Z"/><polygon class="cls-16" points="132.35 404.42 161.4 335.8 232.22 362.33 203.17 430.95 132.35 404.42"/><polygon class="cls-15" points="129.16 282.7 178.79 229.27 236.59 277.47 186.96 330.9 129.16 282.7"/><g><path class="cls-13" d="m279.87,16.82s-.05-.04-.08-.07c-.17-.13-.35-.26-.52-.39-.14-.1-.22-.24-.28-.4-.1-.09-.18-.2-.24-.34-.04-.04-.07-.08-.11-.12,0,0,0,.01,0,.02-.03-.03-.05-.07-.08-.1-.04-.05-.09-.09-.12-.15,0,0-.01-.02-.02-.02,0,0,0,.02,0,.03-.09-.08-.18-.16-.26-.24-.09-.08-.14-.21-.2-.33,0,.01,0,.02,0,.03.04.07.07.11.09.14-.01-.02-.03-.03-.05-.05-.04-.04-.08-.07-.12-.11-.1-.09-.2-.18-.3-.27-.13-.12-.27-.24-.4-.37-.08-.08-.16-.17-.24-.26-30.59-24.49-101.89-12.32-115.34,4.66-9.12,11.51-11.42,22.01-2.26,30.04,9.65,8.46,5.85,10.63,13.89-1.93C194.63,13.25,254.02-.9,280.05,17.09c-.07-.07-.13-.16-.18-.27Z"/><path class="cls-14" d="m295.39,62.44c2.53-17.09-4.97-34.33-16.01-46-.04-.03-.07-.05-.11-.08-.05-.04-.07-.1-.11-.15-1.2-1.26-2.43-2.47-3.71-3.59l-11.92-2.92c13.62,7.04,18.04,17.16,20.75,36.69,2.7,19.53-23.97,53.75-36.99,65.09,12.67-1.29,12.89-5.33,20.58-2.95,14.88-9.08,24.7-27.05,27.52-46.1Z"/><path class="cls-4" d="m247.92,110.92c14.79-5.31,37.02-7.97,54.52-12.85,5.11-1.43,11.57,5.74,12.98,9.37,2.52,6.46,1.1,5.13-4,5.49-15.24,1.08-38.83,10.77-53.08,13.13-3.73.62-7.36-1.15-9.35-4.55-1.98-3.4-3.49-5.87-1.07-10.58Z"/><path class="cls-12" d="m316.48,112.47c-6.34,17.26-16.94,33.89-29.77,45.31-2.94,2.61-6.87,1.67-9.69-.1-2.57-1.61-5.09-5.92-5.69-10.01,7.27-.11,14.67-4.87,20.57-11.18,5.9-6.31,10.51-15.35,15.09-23.06,3.08-.58,6.33-.88,9.49-.96Z"/></g></svg>