<?xml version="1.0" encoding="UTF-8"?><svg id="Layer_1" xmlns="http://www.w3.org/2000/svg" width="372.57" height="503.82" xmlns:xlink="http://www.w3.org/1999/xlink" viewBox="0 0 372.57 503.82"><defs><style>.cls-1{fill:none;}.cls-2{clip-path:url(#clippath);}.cls-3{fill:#fa9164;}.cls-4,.cls-5,.cls-6{fill:#fee8d3;}.cls-7{fill:#ffe985;}.cls-8{fill:#ffd736;}.cls-9{fill:#6fa747;}.cls-10{clip-path:url(#clippath-1);}.cls-11{clip-path:url(#clippath-4);}.cls-12{clip-path:url(#clippath-3);}.cls-13{clip-path:url(#clippath-2);}.cls-14{clip-path:url(#clippath-5);}.cls-15{opacity:.97;}.cls-5{opacity:.93;}.cls-6{opacity:.83;}.cls-16{fill:#ffbe3d;opacity:.87;}</style><clipPath id="clippath"><polygon class="cls-1" points="244.49 173.76 268.24 127.35 273.11 127.35 273.11 179.26 244.49 179.26 244.49 173.76"/></clipPath><clipPath id="clippath-1"><polygon class="cls-1" points="244.49 173.76 268.24 127.35 265.38 123.39 223.29 153.76 240.03 176.98 244.49 173.76"/></clipPath><clipPath id="clippath-2"><rect class="cls-1" x="73.95" y="396.57" width="108.18" height="16.43"/></clipPath><clipPath id="clippath-3"><rect class="cls-1" x="182.13" y="396.57" width="108.18" height="16.43"/></clipPath><clipPath id="clippath-4"><polygon class="cls-1" points="232.71 186.49 209.48 141.98 247.77 141.98 247.77 186.49 232.71 186.49"/></clipPath><clipPath id="clippath-5"><polygon class="cls-1" points="232.71 186.49 209.48 141.98 187.58 173.41 224.1 198.85 232.71 186.49"/></clipPath></defs><g><path class="cls-8" d="m244.82,77.98c-4.81,33.8-14.62,66.74-29.09,97.68,26.96,5.33,55.55-10.04,62.45-33.58,6.9-23.53-8.86-51.93-33.36-64.1Z"/><path class="cls-7" d="m238.44,136.09c-3.02,9.78-9.08,25.62-12.1,35.41,5.98.33,18.85-.87,26.44-5.91-4.74-9.37-9.46-20.69-14.34-29.5Z"/><path class="cls-7" d="m240.23,132.98c2.91,7.56,9.98,19.69,15.05,30.04,5.96-3.13,16.94-14.4,18.08-22.1-10.22-2.87-22.95-4.68-33.13-7.94Z"/><path class="cls-7" d="m241.27,127.96c5.81-4.18,17.81-15.11,26.28-21.21,5.49,5.91,8.56,20.91,7.2,29.28-12.36-3.13-21.65-4.75-33.49-8.07Z"/><path class="cls-7" d="m240.09,123.54c1.53-7.97,6.18-27.81,8.69-38.74,3.62,2.4,11.34,7.72,16.2,16.89-5.39,4.57-19.64,17.4-24.9,21.85Z"/></g><g><g class="cls-2"><path class="cls-9" d="m244.49,170.09c1.1,6.32,9.86,10.45,16.48,8.8,6.62-1.66,10.76-7.56,11.8-13.73,1.04-6.17-.48-12.63-2.1-18.9-1.63-6.27-3.39-12.66-2.84-18.92-7.73,14.53-15.46,29.07-23.34,42.74Z"/></g><g class="cls-10"><path class="cls-9" d="m247.46,171.61c-5.77,2.81-14.25-1.88-16.78-8.22-2.53-6.34-.16-13.15,4.23-17.6,4.39-4.45,10.52-7,16.56-9.35,6.04-2.35,12.25-4.66,17-8.76-7.26,14.77-14.53,29.55-21.01,43.93Z"/></g></g><polygon class="cls-6" points="72.72 407.38 72.72 388.15 72.72 146.65 291.55 146.65 291.55 407.38 72.72 407.38"/><polygon class="cls-3" points="184.99 371.48 106.09 78.51 119.02 74.86 197.92 367.83 184.99 371.48"/><polygon class="cls-16" points="96.72 384.36 96.72 369.71 96.72 185.74 268.44 185.74 268.44 384.36 96.72 384.36"/><g><g class="cls-13"><path class="cls-4" d="m73.95,407.46c41.84,6.1,90.59,5.51,129.18,5.51-.82.68.15-12.2-.67-11.52.3-4.55-7.92-.34-7.62-4.88-40.35,3.23-80.7,6.47-120.89,10.89Z"/></g><g class="cls-12"><path class="cls-4" d="m290.32,407.46c-41.84,6.1-90.59,5.51-129.18,5.51.82.68-.15-12.2.67-11.52-.3-4.55,7.92-.34,7.62-4.88,40.35,3.23,80.7,6.47,120.89,10.89Z"/></g></g><path class="cls-5" d="m174.77,380.24l-48.66-17.67c-.53-.19-.8-.78-.62-1.32l16.21-46.74c.19-.54.77-.82,1.29-.63l48.66,17.67c.53.19.8.78.62,1.32l-16.21,46.74c-.19.54-.77.82-1.29.63Z"/><polygon class="cls-5" points="184.46 312.59 225.35 277.02 258.05 316.38 217.17 351.95 184.46 312.59"/><polygon class="cls-5" points="155.14 233.78 200.77 262.68 174.2 306.62 128.57 277.72 155.14 233.78"/><g class="cls-15"><g class="cls-11"><path class="cls-9" d="m230.46,185.78c5.73,2.63,13.99-2.46,16.38-8.99,2.39-6.54-.05-13.35-4.45-17.7-4.4-4.35-10.47-6.7-16.45-8.86-5.98-2.15-12.13-4.26-16.88-8.24,7.39,14.72,14.78,29.44,21.39,43.8Z"/></g><g class="cls-14"><path class="cls-9" d="m233.42,184.23c-1.11,6.2-10.02,10.08-16.74,8.3-6.73-1.78-10.93-7.67-11.98-13.77-1.06-6.1.48-12.42,2.13-18.56,1.65-6.14,3.44-12.39,2.88-18.56,7.86,14.48,15.71,28.95,23.71,42.59Z"/></g></g></svg>