<?xml version="1.0" encoding="UTF-8"?><svg id="a" xmlns="http://www.w3.org/2000/svg" width="296.75" height="276.16" viewBox="0 0 296.75 276.16"><defs><style>.b{fill:#b9b051;}.c{fill:#cbe5dc;}.d{stroke-width:.1px;}.d,.e,.f,.g{fill:none;stroke-miterlimit:10;}.d,.e,.g{stroke:#e9e8d3;}.e{stroke-width:.2px;}.f{stroke:#c9b077;stroke-width:4px;}.g{stroke-width:.5px;}</style></defs><path class="c" d="M73.8,20.5l108.39-2.03c1.57,19.54-8.59,39.57-25.28,49.85-16.69,10.28-39.15,10.35-55.9,.16-16.75-10.19-27.02-30.16-27.22-47.99Z"/><path class="c" d="M126.19,75.92c.38,14.96,.81,31.82,1.19,46.78l4.3-.21c-.6-15.46-.65-31.11-.17-46.58"/><path class="c" d="M129.92,122.17c-10.24,3.34-23.3,7.23-33.54,10.57l.18,7.45c22.81-1.84,45.77-1.76,68.57,.24-.07-2.33-.14-4.67-.15-7.21-11.44-2.75-19.8-7.21-35.06-11.05Z"/><path class="b" d="M90.81,40.72c26.89,.62,53.8,.63,80.7,.03-6.45,16.34-23.44,27.93-41.01,27.95-17.57,.02-40.44-13.63-39.43-28.59"/><circle class="g" cx="101.35" cy="45.87" r="1.41"/><circle class="e" cx="106.1" cy="47.96" r=".68"/><circle class="d" cx="103.56" cy="50.43" r=".27"/><circle class="g" cx="113.37" cy="55.76" r="1.41"/><circle class="e" cx="118.2" cy="53.88" r=".68"/><circle class="d" cx="118.16" cy="57.42" r=".27"/><circle class="e" cx="129" cy="46.09" r=".68"/><circle class="d" cx="132.56" cy="50.98" r=".27"/><circle class="g" cx="137.19" cy="59.8" r="1.2"/><circle class="g" cx="143.84" cy="45.72" r="1.41"/><circle class="e" cx="148.67" cy="43.84" r=".68"/><circle class="d" cx="148.63" cy="47.38" r=".27"/><circle class="g" cx="151.83" cy="54.16" r="1.41"/><circle class="e" cx="152.59" cy="49.03" r=".68"/><circle class="d" cx="155.64" cy="50.82" r=".27"/><circle class="g" cx="160.27" cy="49.83" r="1.41"/><circle class="e" cx="158.78" cy="44.86" r=".68"/><circle class="d" cx="162.3" cy="45.19" r=".27"/><path class="f" d="M97.03,133.41c-.22-.66-.52-1.29-.95-1.83-3.55-4.62-7.74-6.66-12.59-4.98-5.15,1.79-8.81,6.26-12.2,10.52l-20.55,25.87c-10.49,13.21-21.05,26.52-28.97,41.42-3.01,5.66-5.66,11.65-6.36,18.01s.78,13.22,5.15,17.91c6.54,6.99,17.3,7.44,26.87,7.29,13.12-.21,26.23-.62,39.35-1.04l60.3-1.92c5.61-.18,11.53-.46,16.22-3.54,4.39-2.89,7.02-7.9,8.14-13.03s.9-10.45,.68-15.69l-2.19-51.63c-.19-4.57-.42-9.29-2.35-13.44s-6.02-7.65-10.59-7.44c-4.43,.2-8.12,3.81-9.78,7.92s-1.7,8.67-1.71,13.11l-.11,36.42c-.01,4.04-.1,8.34-2.35,11.7-2.21,3.3-6.1,5.03-9.87,6.28-21.55,7.13-46.41,3.36-64.88-9.84-1.66-1.19-3.34-2.53-4.14-4.42-1.71-4.05,1.27-8.42,4.07-11.8,6.36-7.66,12.71-15.32,19.07-22.98,4.51-5.44,9.12-11.05,11.31-17.77,2.03-6.24-.09-10.76-1.56-15.09Z"/><path class="f" d="M172.08,215.49c20.49-11.92,42.86-22.83,64.88-31.63,6.37-2.54,13.5-4.97,19.92-2.56,4.65,1.74,8.39,6.66,7.35,11.52-.69,3.24-3.22,5.73-5.74,7.88-10.82,9.25-23.7,16.09-37.44,19.87"/><path class="f" d="M185.33,219.2l69.31,2.34c5.14,.17,10.5,.41,14.99,3.2,4.49,2.78,7.72,8.97,5.84,14.28-2.34,6.63-10.25,6.99-16.67,7.01-66.02,.2-45.04-1.59-111.06-1.39"/><path d="M271.57,243.75c-3.01-4.04-9.12-7.12-14.07-6.2s-8.97,3.65-10.34,8.49l24.41-2.29Z"/><path d="M264.04,193.58c-4.03-.42-9.14,.77-11.99,3.66-2.85,2.88-2.78,6.11-2.31,10.13l14.3-13.79Z"/><path d="M165.33,144.35c-3.65,1.97-4.71,8.49-2.39,11.93,2.44,3.63,3.45,3.36,7.04,5.45l-4.64-17.37Z"/><path d="M83.7,126.53c.03,3.63-1.46,7.26-4.05,9.81s-7.36,4.18-10.99,4.09"/><path class="f" d="M171.4,196.44c11.57-11.17,23.15-22.34,35.28-32.9,3.21-2.79,6.69-5.65,10.89-6.3,4.2-.65,9.2,1.91,9.57,6.14,.28,3.14-1.92,5.9-4.02,8.26-10.66,12-21.91,23.47-33.72,34.34"/><path d="M226.6,163.44c-2.46,.65-4.63,2.33-5.89,4.54s-1.59,4.93-.9,7.38l6.78-11.92Z"/></svg>