<?xml version="1.0" encoding="UTF-8"?><svg id="Layer_1" xmlns="http://www.w3.org/2000/svg" width="372.57" height="503.82" xmlns:xlink="http://www.w3.org/1999/xlink" viewBox="0 0 372.57 503.82"><defs><style>.cls-1{fill:none;}.cls-2{clip-path:url(#clippath);}.cls-3{fill:#f2f2f2;}.cls-4{fill:#e7ee9d;}.cls-5{fill:#fff;}.cls-6{fill:#e8e8e8;}.cls-7{fill:#eff7cb;}.cls-8{fill:#a7d7c9;}.cls-9{fill:#bfd874;}.cls-10{fill:#bfd078;}.cls-11{fill:#b1c65f;}.cls-12{fill:#74aa4b;}.cls-13{clip-path:url(#clippath-1);}.cls-14{opacity:.92;}</style><clipPath id="clippath"><rect class="cls-1" x="21.14" y="122.85" width="141.58" height="348.13"/></clipPath><clipPath id="clippath-1"><rect class="cls-1" x="162.73" y="122.85" width="141.58" height="348.13"/></clipPath></defs><ellipse class="cls-7" cx="302.5" cy="118.24" rx="54.1" ry="51.89"/><path class="cls-12" d="m299.32,120.57c-1.56,11.96-2.36,27.55-5.34,41.92-5.32-1.16-10.64-2.97-17.62-7.19-5.52-3.33-12.04-11.65-13.98-16.81,10.87-7.22,26.66-12.14,36.94-17.92Z"/><path class="cls-12" d="m306.1,120.57c-.94,12.04-3.43,27.47-3.43,42.16,5.7,0,11.52-.64,19.56-3.28,6.36-2.08,14.8-8.83,17.88-13.47-9.6-9.38-24.71-17.56-34.01-25.4Z"/><path class="cls-12" d="m293.87,118.99c-11.87,3.87-21.6,8.47-35.91,13.14-2.24-4.09-3.83-8.08-3.55-16.06.22-6.3,4.33-15.04,7.97-19.25,10.53,5.41,21.2,16.42,31.49,22.17Z"/><g class="cls-14"><g class="cls-2"><path class="cls-8" d="m164.34,126.32c-44.63.79-98.56-4.17-143.2-3.38,7.93,35.75,40.01,70.65,76.82,85.74,5.13,23.12,20.04,49.32,44.22,56.56,12.64,56.89,10.01,104.52.64,151.48-.19.94-1.44.74-2.52.84-21.66,1.88-50.97,6.02-58.91,20.56-9.4,17.2,26.76,29.09,48.25,31.55s22.09.71,38.57,1.28c-8.43-119.79-.62-226.46-3.88-344.63Z"/></g><g class="cls-13"><path class="cls-8" d="m161.11,126.32c44.63.79,98.56-4.17,143.2-3.38-7.93,35.75-40.01,70.65-76.82,85.74-5.13,23.12-20.04,49.32-44.22,56.56-12.64,56.89-10.01,104.52-.64,151.48.19.94,1.44.74,2.52.84,21.66,1.88,50.97,6.02,58.91,20.56,9.4,17.2-26.76,29.09-48.25,31.55s-22.09.71-38.57,1.28c8.43-119.79.62-226.46,3.88-344.63Z"/></g></g><g><ellipse class="cls-5" cx="295.63" cy="120.75" rx="2.22" ry="2.4"/><path class="cls-3" d="m169.77,121.32c-28.06-.1-150.07-2.99-153.51,3.38-2.23,4.13,0,7.46,4.43,7.42,94.24-1.01,190.37-5.24,284.55-1.35,4.53.19,4.07-6.89,1.49-8.46-5.03-3.05-13.89-1.73-19.04-1.62-91.58,2.02-78.1.77-117.91.63Z"/><ellipse class="cls-5" cx="30.69" cy="132" rx="2.22" ry="2.4"/><ellipse class="cls-5" cx="55" cy="134.02" rx="2.22" ry="2.4"/><ellipse class="cls-5" cx="32.91" cy="122.71" rx="2.22" ry="2.4"/><ellipse class="cls-5" cx="51.19" cy="122.71" rx="2.22" ry="2.4"/><ellipse class="cls-5" cx="62.41" cy="120.75" rx="2.22" ry="2.4"/><ellipse class="cls-5" cx="62.41" cy="120.75" rx="2.22" ry="2.4"/><ellipse class="cls-5" cx="84" cy="122.71" rx="2.22" ry="2.4"/><ellipse class="cls-5" cx="93.77" cy="121.42" rx="2.22" ry="2.4"/><ellipse class="cls-5" cx="105.26" cy="121.42" rx="2.22" ry="2.4"/><ellipse class="cls-5" cx="110.82" cy="121.42" rx="2.22" ry="2.4"/><ellipse class="cls-5" cx="134.41" cy="120.02" rx="2.22" ry="2.4"/><ellipse class="cls-5" cx="146.82" cy="122.42" rx="2.22" ry="2.4"/><ellipse class="cls-5" cx="161.31" cy="122.71" rx="2.22" ry="2.4"/><ellipse class="cls-5" cx="181.55" cy="121.59" rx="2.22" ry="2.4"/><ellipse class="cls-5" cx="202.71" cy="123.14" rx="2.22" ry="2.4"/><ellipse class="cls-5" cx="202.71" cy="123.14" rx="2.22" ry="2.4"/><ellipse class="cls-5" cx="246.3" cy="122.42" rx="2.22" ry="2.4"/><ellipse class="cls-5" cx="263.51" cy="121.59" rx="2.22" ry="2.4"/><ellipse class="cls-5" cx="263.51" cy="121.59" rx="2.22" ry="2.4"/><ellipse class="cls-5" cx="275.78" cy="122.42" rx="2.22" ry="2.4"/><ellipse class="cls-5" cx="306.88" cy="123.99" rx="2.22" ry="2.4"/><ellipse class="cls-6" cx="24.71" cy="126.21" rx="2.22" ry="2.4"/><ellipse class="cls-6" cx="35.13" cy="128.04" rx="2.22" ry="2.4"/><ellipse class="cls-6" cx="49.23" cy="123.82" rx="2.22" ry="2.4"/><ellipse class="cls-6" cx="75.63" cy="127.21" rx="2.22" ry="2.4"/><ellipse class="cls-6" cx="96.52" cy="123.82" rx="2.22" ry="2.4"/><ellipse class="cls-6" cx="117.72" cy="126.38" rx="2.22" ry="2.4"/><ellipse class="cls-6" cx="125.12" cy="123.82" rx="2.22" ry="2.4"/><ellipse class="cls-6" cx="144.6" cy="128.78" rx="2.22" ry="2.4"/><ellipse class="cls-6" cx="171.76" cy="123.82" rx="2.22" ry="2.4"/><ellipse class="cls-6" cx="188.21" cy="121.42" rx="2.22" ry="2.4"/><ellipse class="cls-6" cx="210.67" cy="124.81" rx="2.22" ry="2.4"/><ellipse class="cls-6" cx="226.86" cy="123.99" rx="2.22" ry="2.4"/><ellipse class="cls-6" cx="235.74" cy="122.42" rx="2.22" ry="2.4"/><ellipse class="cls-6" cx="256.87" cy="128.04" rx="2.22" ry="2.4"/><ellipse class="cls-6" cx="265.73" cy="125.65" rx="2.22" ry="2.4"/><ellipse class="cls-6" cx="280.22" cy="126.21" rx="2.22" ry="2.4"/><ellipse class="cls-6" cx="298.58" cy="129.72" rx="2.22" ry="2.4"/><ellipse class="cls-6" cx="298.58" cy="129.72" rx="2.22" ry="2.4"/><ellipse class="cls-6" cx="64.05" cy="131.17" rx="2.22" ry="2.4"/><ellipse class="cls-6" cx="64.05" cy="131.17" rx="2.22" ry="2.4"/><ellipse class="cls-6" cx="16.32" cy="130.44" rx="2.22" ry="2.4"/><ellipse class="cls-5" cx="79.56" cy="131.17" rx="2.22" ry="2.4"/><ellipse class="cls-5" cx="87.66" cy="129.6" rx="2.22" ry="2.4"/><ellipse class="cls-5" cx="102.02" cy="132" rx="2.22" ry="2.4"/><ellipse class="cls-5" cx="116.13" cy="130.44" rx="2.22" ry="2.4"/><ellipse class="cls-5" cx="122.92" cy="132.83" rx="2.22" ry="2.4"/><ellipse class="cls-5" cx="134.41" cy="130.44" rx="2.22" ry="2.4"/><ellipse class="cls-5" cx="166.27" cy="130.44" rx="2.22" ry="2.4"/><ellipse class="cls-5" cx="171.76" cy="130.44" rx="2.22" ry="2.4"/><ellipse class="cls-5" cx="177.5" cy="132.12" rx="2.22" ry="2.4"/><ellipse class="cls-5" cx="183.77" cy="128.04" rx="2.22" ry="2.4"/><ellipse class="cls-5" cx="199.18" cy="129.6" rx="2.22" ry="2.4"/><ellipse class="cls-6" cx="294.04" cy="122.42" rx="2.22" ry="2.4"/><ellipse class="cls-5" cx="215.11" cy="128.04" rx="2.22" ry="2.4"/><ellipse class="cls-5" cx="243.58" cy="129.26" rx="2.22" ry="2.4"/><ellipse class="cls-5" cx="252.2" cy="128.04" rx="2.22" ry="2.4"/><ellipse class="cls-5" cx="270.17" cy="129.72" rx="2.22" ry="2.4"/><ellipse class="cls-5" cx="284.53" cy="129.72" rx="2.22" ry="2.4"/><ellipse class="cls-5" cx="290.28" cy="129.72" rx="2.22" ry="2.4"/><ellipse class="cls-5" cx="306.88" cy="132.83" rx="2.22" ry="2.4"/></g><path class="cls-10" d="m49.46,144.76c76.75,4.84,153.43,8.86,229.07-1.2-10.73,28.81-26.87,46.4-58.7,53.32.59,28.09-28.44,53.75-59.36,52.47-30.92-1.28-57.26-24.3-53.86-52.22-25.52-.29-55.85-33.05-57.14-52.37Z"/><path class="cls-11" d="m106.6,197.13c37.99,13.36,75.18,13.52,113.22-.24-.71,2.9.7-.88-.01,2.02-35.78,18.34-79.75,17.29-113.44.95-.55-2.54,1-.88.24-2.72Z"/><path class="cls-4" d="m133.2,237.81c13.68,3.74,33.76,7.58,58.68-.52-26.11,18.63-50.91,5.84-58.68.52Z"/><path class="cls-9" d="m52.73,156.11c-1.52-2.94-3.02-7.65-3.27-12.55,75.79,7.09,155.11,7.45,229.81,0-1.38,5.44-4.87,7.89-6.26,13.32-54.47-.32-108.97,1.87-163.23,6.56-20.41,1.76-39.2-5.66-57.06-7.34Z"/><path class="cls-12" d="m299.06,116.63c.94-12.04,3.43-27.47,3.43-42.16-5.7,0-11.52.64-19.56,3.28-6.36,2.08-14.8,8.83-17.88,13.47,9.6,9.38,24.71,17.56,34.01,25.4Z"/><path class="cls-12" d="m305.84,116.63c1.56-11.96,2.36-27.55,5.34-41.92,5.32,1.16,10.64,2.97,17.62,7.19,5.52,3.33,12.04,11.65,13.98,16.81-10.87,7.22-26.66,12.14-36.94,17.92Z"/><path class="cls-12" d="m310.68,119.32c11.69-4.37,21.2-9.37,35.29-14.64,2.42,4,4.18,7.91,4.27,15.89.07,6.31-4,14-7.45,18.35-10.77-4.96-21.56-14.29-32.11-19.61Z"/></svg>