<?xml version="1.0" encoding="UTF-8"?><svg id="Layer_1" xmlns="http://www.w3.org/2000/svg" width="372.57" height="503.82" xmlns:xlink="http://www.w3.org/1999/xlink" viewBox="0 0 372.57 503.82"><defs><style>.cls-1{fill:none;}.cls-2{clip-path:url(#clippath);}.cls-3{fill:#fa9164;}.cls-4{fill:#ebe7df;}.cls-5,.cls-6,.cls-7,.cls-8,.cls-9{fill:#fee8d3;}.cls-10{fill:#eff7cb;}.cls-11{fill:#a7d7c9;}.cls-12{fill:#c0d8a8;}.cls-13{fill:#6fa747;}.cls-14{fill:#74aa4b;}.cls-15{clip-path:url(#clippath-1);}.cls-16{clip-path:url(#clippath-4);}.cls-17{clip-path:url(#clippath-3);}.cls-18{clip-path:url(#clippath-2);}.cls-19{clip-path:url(#clippath-5);}.cls-6{opacity:.89;}.cls-7{opacity:.91;}.cls-8{opacity:.92;}.cls-9{opacity:.93;}</style><clipPath id="clippath"><polygon class="cls-1" points="198.05 236.06 215.12 177.95 227.37 177.95 227.37 236.06 198.05 236.06"/></clipPath><clipPath id="clippath-1"><polygon class="cls-1" points="198.05 236.06 215.11 177.95 204.81 171.32 173.38 220.2 198.05 236.06"/></clipPath><clipPath id="clippath-2"><polygon class="cls-1" points="142.39 312.06 126.83 257.8 163.77 257.8 163.77 312.06 142.39 312.06"/></clipPath><clipPath id="clippath-3"><polygon class="cls-1" points="142.39 312.06 126.83 257.8 95.5 277.37 124.26 323.39 142.39 312.06"/></clipPath><clipPath id="clippath-4"><rect class="cls-1" x="205.43" y="346.45" width="24.64" height="57.43"/></clipPath><clipPath id="clippath-5"><rect class="cls-1" x="180.79" y="346.45" width="24.64" height="57.43"/></clipPath></defs><path class="cls-4" d="m252.46,399.5c.29,0,.58-.5.87-.5-.29,0-.58.5-.87.5h0Z"/><rect class="cls-5" x="106.35" y="156.88" width="141.87" height="283.1"/><polygon class="cls-5" points="106.35 439.99 140.1 156.88 72.59 156.88 106.35 439.99"/><polygon class="cls-5" points="248.21 439.99 281.97 156.88 214.46 156.88 248.21 439.99"/><rect class="cls-12" x="123.58" y="193.43" width="107.39" height="235.42"/><polygon class="cls-12" points="123.58 428.85 149.14 193.43 98.03 193.43 123.58 428.85"/><polygon class="cls-12" points="230.98 428.85 256.53 193.43 205.43 193.43 230.98 428.85"/><g><g class="cls-2"><path class="cls-13" d="m196.74,229.43c2.48,6.4,13.1,8.44,20.17,4.91s10.52-10.87,10.46-17.68c-.06-6.81-3.04-13.24-6.1-19.45-3.06-6.21-6.3-12.5-6.93-19.27-5.76,17.45-11.52,34.9-17.61,51.48Z"/></g><g class="cls-15"><path class="cls-13" d="m202.73,231.19c-5.55,4.05-15.58.01-19.62-6.77s-2.97-14.84.76-20.53,9.71-9.5,15.65-13.06c5.93-3.56,12.06-7.11,16.24-12.46-4.59,17.79-9.19,35.59-13.03,52.83Z"/></g></g><g><g class="cls-18"><path class="cls-13" d="m141.12,309.99c5.8,4.39,16.09,1.34,20.15-4.88,4.06-6.22,2.81-14.09-1.14-19.92-3.95-5.82-10.2-10.01-16.38-13.96-6.19-3.95-12.57-7.9-16.99-13.44,5.05,17.6,10.1,35.2,14.36,52.19Z"/></g><g class="cls-17"><path class="cls-13" d="m142.37,309.64c-2.59,6.79-12.93,9.66-19.67,6.54-6.74-3.12-9.85-10.46-9.59-17.49.27-7.03,3.34-13.89,6.5-20.52,3.15-6.63,6.48-13.36,7.29-20.4,5.04,17.6,10.09,35.2,15.47,51.88Z"/></g></g><polygon class="cls-3" points="212.84 428.85 113.54 109.04 127.68 105.57 226.99 425.39 212.84 428.85"/><rect class="cls-6" x="123.58" y="202.83" width="58.7" height="52.11"/><polygon class="cls-7" points="156.31 421.07 165.17 369.56 223.2 377.43 214.34 428.94 156.31 421.07"/><polygon class="cls-9" points="151.52 303.21 173.6 254.93 227.99 274.53 205.91 322.81 151.52 303.21"/><polygon class="cls-8" points="139.16 378.04 113.78 331.06 166.71 308.53 192.09 355.51 139.16 378.04"/><g><g class="cls-16"><path class="cls-13" d="m203.57,399.93c4.29,5.55,15.07,5,20.79-.04,5.72-5.04,6.82-12.89,4.73-19.4-2.1-6.51-6.87-11.97-11.66-17.2-4.79-5.23-9.77-10.5-12.4-16.83-.29,18.08-.59,36.15-1.45,53.47Z"/></g><g class="cls-19"><path class="cls-13" d="m207.29,399.93c-4.29,5.55-15.07,5-20.79-.04-5.72-5.04-6.82-12.89-4.73-19.4,2.1-6.51,6.87-11.97,11.66-17.2,4.79-5.23,9.77-10.5,12.4-16.83.29,18.08.59,36.15,1.45,53.47Z"/></g></g><path class="cls-10" d="m222.84,133.58c33.6,15.14,64.94,34.25,92.92,56.65,12.93-21.16,4.92-50.49-17.49-64.05-22.42-13.56-56.09-9.45-75.42,7.39Z"/><path class="cls-14" d="m280.93,159.43c9.28,5.76,23.98,16.09,33.25,21.85,1.99-4.98,4.29-16.3,1.18-24.4-10.99.96-23.98,1.27-34.43,2.54Z"/><path class="cls-14" d="m278.41,155.47c8.61,0,23.09-2.04,35.18-2.97-1.6-6.09-10.21-19.1-17.86-22.59-5.78,7.74-11.15,17.97-17.33,25.56Z"/><path class="cls-14" d="m273.5,152.95c-2.72-6.3-10.71-20.07-14.68-29.27,7.62-2.73,23.96-.43,32.24,3.45-6.64,9.48-10.87,16.84-17.56,25.81Z"/><path class="cls-14" d="m268.62,152.5c-7.82-3.9-27.04-14.34-37.64-20.05,3.48-2.29,11.1-7.11,21.91-8.25,3.23,6.08,12.57,22.38,15.72,28.3Z"/><line class="cls-11" x1="136.22" y1="415.7" x2="135.47" y2="415.17"/></svg>