<?xml version="1.0" encoding="UTF-8"?><svg id="Layer_1" xmlns="http://www.w3.org/2000/svg" width="372.57" height="503.82" xmlns:xlink="http://www.w3.org/1999/xlink" viewBox="0 0 372.57 503.82"><defs><style>.cls-1{fill:none;}.cls-2{clip-path:url(#clippath);}.cls-3{fill:#fa9164;}.cls-4{fill:#ebe7df;}.cls-5,.cls-6,.cls-7,.cls-8,.cls-9{fill:#fee8d3;}.cls-10{fill:#eff7cb;}.cls-11{fill:#a7d7c9;}.cls-12{fill:#c0d8a8;}.cls-13{fill:#6fa747;}.cls-14{fill:#74aa4b;}.cls-15{clip-path:url(#clippath-1);}.cls-16{clip-path:url(#clippath-4);}.cls-17{clip-path:url(#clippath-3);}.cls-18{clip-path:url(#clippath-2);}.cls-19{clip-path:url(#clippath-5);}.cls-6{opacity:.89;}.cls-7{opacity:.91;}.cls-8{opacity:.92;}.cls-9{opacity:.93;}</style><clipPath id="clippath"><polygon class="cls-1" points="211.1 186.92 233.3 103.68 249.24 103.68 249.24 186.92 211.1 186.92"/></clipPath><clipPath id="clippath-1"><polygon class="cls-1" points="211.1 186.92 233.3 103.68 219.48 95.74 178.02 167.93 211.1 186.92"/></clipPath><clipPath id="clippath-2"><polygon class="cls-1" points="138.69 295.81 118.45 218.07 166.5 218.07 166.5 295.81 138.69 295.81"/></clipPath><clipPath id="clippath-3"><polygon class="cls-1" points="138.69 295.81 118.45 218.07 76.5 241.51 114.41 309.37 138.69 295.81"/></clipPath><clipPath id="clippath-4"><rect class="cls-1" x="220.69" y="345.08" width="32.05" height="82.27"/></clipPath><clipPath id="clippath-5"><rect class="cls-1" x="188.64" y="345.08" width="32.05" height="82.27"/></clipPath></defs><path class="cls-4" d="m282.01,420.96c.29,0,.58-.5.87-.5-.29,0-.58.5-.87.5h0Z"/><rect class="cls-5" x="91.8" y="73.5" width="184.55" height="405.57"/><polygon class="cls-5" points="91.8 479.07 135.71 73.5 47.89 73.5 91.8 479.07"/><polygon class="cls-5" points="276.36 479.07 320.27 73.5 232.45 73.5 276.36 479.07"/><rect class="cls-12" x="114.23" y="125.85" width="139.71" height="337.26"/><polygon class="cls-12" points="114.23 463.11 147.47 125.85 80.98 125.85 114.23 463.11"/><polygon class="cls-12" points="253.93 463.11 287.18 125.85 220.69 125.85 253.93 463.11"/><g><g class="cls-2"><path class="cls-13" d="m209.39,177.43c3.22,9.17,17.04,12.08,26.24,7.04,9.2-5.05,13.69-15.58,13.61-25.33-.08-9.75-3.95-18.97-7.93-27.86-3.98-8.89-8.19-17.9-9.01-27.6-7.49,25-14.98,50-22.9,73.75Z"/></g><g class="cls-15"><path class="cls-13" d="m217.3,179.54c-7.36,6.35-20.79,2-26.26-6.96-5.47-8.96-4.11-20.32.81-28.74,4.93-8.42,12.87-14.48,20.75-20.21s16.02-11.45,21.56-19.45c-5.95,25.41-11.91,50.82-16.87,75.36Z"/></g></g><g><g class="cls-18"><path class="cls-13" d="m137.04,292.85c7.54,6.28,20.93,1.92,26.21-6.99,5.28-8.91,3.66-20.19-1.48-28.53-5.14-8.34-13.26-14.34-21.31-20-8.05-5.66-16.36-11.32-22.1-19.25,6.57,25.21,13.13,50.42,18.68,74.77Z"/></g><g class="cls-17"><path class="cls-13" d="m138.68,292.42c-3.52,9.16-17.33,11.88-26.29,6.68-8.96-5.2-13.04-15.84-12.62-25.63.42-9.79,4.59-18.99,8.85-27.86,4.27-8.87,8.76-17.86,9.91-27.58,6.56,25.21,13.12,50.42,20.15,74.39Z"/></g></g><polygon class="cls-3" points="230.34 463.11 101.15 4.96 119.56 0 248.74 458.15 230.34 463.11"/><rect class="cls-6" x="114.23" y="139.32" width="76.37" height="74.64"/><polygon class="cls-7" points="156.8 451.97 168.33 378.18 243.82 389.45 232.29 463.24 156.8 451.97"/><polygon class="cls-9" points="150.56 283.13 179.29 213.96 250.05 242.05 221.32 311.21 150.56 283.13"/><polygon class="cls-8" points="134.49 390.33 101.47 323.03 170.33 290.75 203.35 358.06 134.49 390.33"/><g><g class="cls-16"><path class="cls-13" d="m218.28,421.68c5.58,7.96,19.6,7.17,27.04-.05,7.44-7.22,8.88-18.47,6.15-27.8-2.73-9.33-8.94-17.15-15.17-24.64-6.23-7.49-12.71-15.04-16.13-24.12-.38,25.9-.76,51.79-1.89,76.6Z"/></g><g class="cls-19"><path class="cls-13" d="m223.11,421.68c-5.58,7.96-19.6,7.17-27.04-.05-7.44-7.22-8.88-18.47-6.15-27.8,2.73-9.33,8.94-17.15,15.17-24.64,6.23-7.49,12.71-15.04,16.13-24.12.38,25.9.76,51.79,1.89,76.6Z"/></g></g><path class="cls-10" d="m243.35,40.13c43.71,21.69,84.47,49.06,120.87,81.16,16.82-30.32,6.4-72.33-22.76-91.75-29.16-19.42-72.97-13.53-98.12,10.59Z"/><path class="cls-14" d="m318.92,77.15c12.07,8.26,31.19,23.05,43.26,31.31,2.58-7.13,5.58-23.35,1.53-34.95-14.3,1.38-31.19,1.82-44.79,3.65Z"/><path class="cls-14" d="m315.63,71.47c11.2,0,30.04-2.92,45.77-4.25-2.08-8.72-13.28-27.37-23.23-32.36-7.51,11.09-14.51,25.74-22.54,36.61Z"/><path class="cls-14" d="m309.25,67.87c-3.54-9.03-13.93-28.75-19.09-41.93,9.91-3.92,31.17-.62,41.94,4.95-8.64,13.58-14.14,24.13-22.85,36.98Z"/><path class="cls-14" d="m302.9,67.23c-10.17-5.59-35.17-20.55-48.96-28.73,4.53-3.28,14.44-10.19,28.51-11.81,4.21,8.7,16.36,32.06,20.45,40.54Z"/><line class="cls-11" x1="130.66" y1="444.28" x2="129.68" y2="443.52"/></svg>