<?xml version="1.0" encoding="UTF-8"?><svg id="Layer_1" xmlns="http://www.w3.org/2000/svg" width="372.57" height="503.82" xmlns:xlink="http://www.w3.org/1999/xlink" viewBox="0 0 372.57 503.82"><defs><style>.cls-1{fill:none;}.cls-2{fill:url(#linear-gradient);}.cls-3{clip-path:url(#clippath);}.cls-4{fill:#fa9164;}.cls-5{fill:#ed73a0;}.cls-6{fill:#f5ee6d;}.cls-7{fill:#fff599;}.cls-8{fill:#ffd64f;}.cls-9{fill:#e52f31;}.cls-10{fill:#f0da60;}.cls-11{fill:#a11008;}.cls-12,.cls-13{fill:#a7d7c9;}.cls-14{fill:#cabc46;}.cls-15{fill:#dcd3d6;}.cls-16{fill:#5c524a;}.cls-17{fill:#5d3c15;}.cls-18{clip-path:url(#clippath-1);}.cls-19{clip-path:url(#clippath-3);}.cls-20{clip-path:url(#clippath-2);}.cls-21{fill:url(#linear-gradient-2);}.cls-13{opacity:.91;}</style><clipPath id="clippath"><rect class="cls-1" x="106.49" y="331.06" width="72.92" height="113.47"/></clipPath><clipPath id="clippath-1"><rect class="cls-1" x="179.41" y="331.06" width="72.92" height="113.47"/></clipPath><clipPath id="clippath-2"><rect class="cls-1" x="111.1" y="131.07" width="66.26" height="144.47"/></clipPath><linearGradient id="linear-gradient" x1="153.14" y1="235.42" x2="150.03" y2="151.36" gradientUnits="userSpaceOnUse"><stop offset="0" stop-color="#f0da60"/><stop offset="1" stop-color="#fff599"/></linearGradient><clipPath id="clippath-3"><rect class="cls-1" x="177.36" y="131.07" width="66.26" height="144.47"/></clipPath><linearGradient id="linear-gradient-2" x1="153.14" y1="235.42" x2="150.03" y2="151.36" gradientTransform="translate(354.72 0) rotate(-180) scale(1 -1)" xlink:href="#linear-gradient"/></defs><ellipse class="cls-11" cx="155.94" cy="108.36" rx="21.96" ry="22.75"/><polygon class="cls-11" points="152.07 90.25 129.12 21.22 115.9 23.98 146.55 92.31 152.07 90.25"/><rect class="cls-4" x="148.91" y="22.67" width="15" height="299.8" transform="translate(-55.11 75.08) rotate(-23.07)"/><rect class="cls-4" x="63.79" y="14.7" width="15" height="78.11" transform="translate(49.77 140.41) rotate(-113.07)"/><path class="cls-6" d="m220.89,48.33c6.88,34.37,13.75,68.74,20.63,103.11,26.25-22.17,52.5-44.34,78.56-68.13-25.89-26.11-63.5-39.23-99.19-34.99Z"/><path class="cls-8" d="m247.39,136.98c12.29-17.16,26.5-33,36.87-51.47,3.16-5.63,6.01-7.2,9.88-5.19,1.49.77,1.84,2.83.71,4.09-15.83,17.66-31.67,35.3-47.46,52.57Z"/><path class="cls-17" d="m221.32,47.77c35.46-1.62,71.4,11.29,98.33,35.32-11.04-15.15-27.37-25.7-44.88-31.32s-36.17-6.56-53.45-4Z"/><path class="cls-8" d="m242.44,133.53c-2.98-23.55-5.97-47.1-8.95-70.65-.22-1.77,1.17-3.57,2.88-3.73,1.71-.16,3.41,1.36,3.5,3.14,1.24,23.75,2.49,47.49,2.57,71.24Z"/><path class="cls-8" d="m247.38,131.11c5.38-19.39,10.77-38.78,16.15-58.17.6-2.17,3.16-3.5,5.21-2.72,2.05.79,3.16,3.52,2.26,5.58-8.1,18.56-16.2,37.11-23.62,55.3Z"/><g><polygon class="cls-16" points="196.47 135.38 215.58 73.52 218.85 74.57 199.74 136.44 196.47 135.38"/><polygon class="cls-9" points="226.4 46.18 150.28 53.5 282.28 96.1 226.4 46.18"/><polygon class="cls-5" points="226.4 46.18 251.55 83.29 263.27 87.38 226.4 46.18"/><polygon class="cls-5" points="226.4 47.06 225.93 74.7 234.2 78.28 226.4 47.06"/><polygon class="cls-5" points="225.83 46.71 201.39 67.55 192.87 64.39 225.83 46.71"/><polygon class="cls-5" points="225.66 46.25 176.33 59.38 165.89 56.08 225.66 46.25"/><ellipse class="cls-15" cx="227.64" cy="44.17" rx="2.83" ry="1.89" transform="translate(106.67 242) rotate(-69.54)"/></g><g><g class="cls-3"><path class="cls-12" d="m116.88,331.06c12.1,10.51,24.21,21.03,36.31,31.54,5.12,4.45.1,14.69-3.41,20.51-3.08,5.12-3.16,14.78,2.2,20.15,5.13,5.15,5.65,10.38,2.43,16.91-3.22,6.53-10.07,10.24-16.97,12.52-6.89,2.28-13.54,3.39-20.79,3.78-2.68.15-12.39,6.41-9.7,6.41,5.38,0,33.68,1.13,36.37,1.13,9.3,0,25.7-.04,33.09.33s23.49.12,30.16-.56c6.66-.69-10.18-3.08-10.46-9.79-.9-22.14-.4-61.06-1.3-83.2-.45-11.16-38.18.37-48.64-3.45-10.46-3.82-22.33-6.75-29.3-16.28Z"/></g><g class="cls-18"><path class="cls-12" d="m241.95,331.06c-12.1,10.51-24.21,21.03-36.31,31.54-5.12,4.45-.1,14.69,3.41,20.51,3.08,5.12,3.16,14.78-2.2,20.15-5.13,5.15-5.65,10.38-2.43,16.91,3.22,6.53,10.07,10.24,16.97,12.52,6.89,2.28,13.54,3.39,20.79,3.78,2.68.15,12.39,6.41,9.7,6.41-5.38,0-33.68,1.13-36.37,1.13-9.3,0-25.7-.04-33.09.33s-23.49.12-30.16-.56c-6.66-.69,10.18-3.08,10.46-9.79.9-22.14.4-61.06,1.3-83.2.45-11.16,38.18.37,48.64-3.45,10.46-3.82,22.33-6.75,29.3-16.28Z"/></g></g><path class="cls-13" d="m96,107.73c52.65-10.86,114.54-11.31,166.96.62-23.66,41.41-30.6,88.52-10.62,131.83,15.17,32.9,14.55,75.57-14.39,97.39-28.93,21.81-87.7,25.25-115.16,1.61-27.46-23.64-34.92-59.61-16.3-91.77,21.21-36.63,13.69-96.26-10.49-139.67Z"/><ellipse class="cls-10" cx="179.48" cy="279.96" rx="68.5" ry="65.8"/><g><g class="cls-20"><path class="cls-2" d="m111.1,271.83c23.16.5,55.02,3.22,78.18,3.72,1.54-47.79,1.85-96.68,3.39-144.47-25.26,0-45.66.77-71.98,4.36,21.89,48.57,8.01,86.23-3.48,112.68-4.03,9.28-4.37,14.84-6.11,23.72Z"/></g><g class="cls-19"><path class="cls-21" d="m243.62,271.83c-23.16.5-55.02,3.22-78.18,3.72-1.54-47.79-1.85-96.68-3.39-144.47,25.26,0,45.66.77,71.98,4.36-21.89,48.57-8.01,86.23,3.48,112.68,4.03,9.28,4.37,14.84,6.11,23.72Z"/></g></g><path class="cls-7" d="m121.73,137.57c-1.23-2.98-2.99-6.25-4.22-9.23,16.54-7.68,35.97-2.14,64.08,3.35,7.4,1.45,2.37,2.04,8.79,2.04,7.05,0,18.04,1.35,24.13,2.25"/><path class="cls-14" d="m139.91,335.34c26.33-.57,52.67-1.14,79-1.71-8.35,7.1-22.95,11.75-38.08,12.11-15.12.36-30.38-3.57-40.92-10.4Z"/></svg>