<?xml version="1.0" encoding="UTF-8"?><svg id="Layer_1" xmlns="http://www.w3.org/2000/svg" width="372.57" height="503.82" xmlns:xlink="http://www.w3.org/1999/xlink" viewBox="0 0 372.57 503.82"><defs><style>.cls-1{fill:none;}.cls-2{fill:url(#linear-gradient);}.cls-3{clip-path:url(#clippath);}.cls-4{fill:#f7e5ab;}.cls-5{fill:#f29224;}.cls-6{fill:#fee8d3;}.cls-7,.cls-8{fill:#faf1d7;}.cls-9{fill:#a11008;}.cls-10{clip-path:url(#clippath-1);}.cls-8{opacity:.91;}.cls-11{fill:#f5f2e9;opacity:.87;}</style><clipPath id="clippath"><rect class="cls-1" x="61.37" y="118.81" width="127.66" height="293.4"/></clipPath><clipPath id="clippath-1"><rect class="cls-1" x="189.03" y="118.81" width="127.66" height="293.4"/></clipPath><linearGradient id="linear-gradient" x1="190.86" y1="203.04" x2="190.86" y2="429.14" gradientUnits="userSpaceOnUse"><stop offset="0" stop-color="#fff459"/><stop offset=".27" stop-color="#fff157"/><stop offset=".47" stop-color="#ffe853"/><stop offset=".63" stop-color="#ffd84b"/><stop offset=".79" stop-color="#ffc241"/><stop offset=".93" stop-color="#ffa633"/><stop offset="1" stop-color="#ff952b"/></linearGradient></defs><g><g class="cls-3"><polygon class="cls-6" points="88.63 412.22 61.37 118.81 288.52 118.81 288.52 411.29 88.63 412.22"/></g><g class="cls-10"><polygon class="cls-6" points="289.43 412.22 316.69 118.81 89.54 118.81 89.54 411.29 289.43 412.22"/></g></g><path class="cls-4" d="m161.36,166.51c-28.13-21.29-53.49-46.41-75.21-74.48-15.53,20.29-13.31,52.49,4.86,70.35,18.16,17.85,49.72,18.84,70.35,4.13Z"/><path class="cls-5" d="m118.34,138.06c1.39,7.08,6.31,22.87,8.34,33.2-7.45,1.68-22.01-3.33-28.92-8.74,7.73-8.95,12.89-16.05,20.58-24.46Z"/><path class="cls-5" d="m82.25,128.56c-1.44-9.04,2.64-20.62,5.33-25.56,7.49,7.55,19.15,20.77,26.64,28.32-9.79-.31-21.74-2.04-31.97-2.76Zm33.59,7.34c-7.88-1.36-21.5-1.5-32.74-2.43.4,6.68,6.02,21.77,12.41,26.66,6.64-7.26,13.34-17.2,20.32-24.23Zm17.91,37.02c10.1.52,17.92-3.37,21.5-5.23-8.71-7.7-24.49-21.76-30.97-27.12,1.85,6.74,7.56,25.43,9.47,32.35Z"/><polygon class="cls-7" points="177.44 300.93 192.92 247.46 245.19 263.3 229.71 316.76 177.44 300.93"/><ellipse class="cls-9" cx="152.24" cy="150.05" rx="20.67" ry="21.14"/><polygon class="cls-11" points="91.43 189.09 88.48 156.79 293.36 156.79 290.18 190.48 91.43 189.09"/><polygon class="cls-9" points="155.89 133.21 177.49 69.06 189.93 71.63 161.08 135.13 155.89 133.21"/><polygon class="cls-7" points="141.74 374.9 115.15 326.22 162.74 299.03 189.33 347.71 141.74 374.9"/><polygon class="cls-2" points="110.41 387.96 91.43 189.31 290.29 189.31 270.26 387.08 110.41 387.96"/><polygon id="_Rectangle_" class="cls-8" points="184.69 362.21 204.88 310.42 255.52 331.07 235.33 382.86 184.69 362.21"/><polygon id="_Rectangle_-2" class="cls-8" points="137.81 354.79 119.15 302.4 170.37 283.32 189.03 335.71 137.81 354.79"/></svg>