<?xml version="1.0" encoding="UTF-8"?><svg id="Layer_1" xmlns="http://www.w3.org/2000/svg" width="372.57" height="503.82" xmlns:xlink="http://www.w3.org/1999/xlink" viewBox="0 0 372.57 503.82"><defs><style>.cls-1{fill:none;}.cls-2{clip-path:url(#clippath);}.cls-3{fill:#fa9164;}.cls-4,.cls-5,.cls-6,.cls-7{fill:#fee8d3;}.cls-8{fill:#fff4e3;}.cls-9{fill:#fffde8;}.cls-10{fill:#f0ad6e;}.cls-11{fill:#5e3619;}.cls-12{clip-path:url(#clippath-1);}.cls-13{clip-path:url(#clippath-3);}.cls-14{clip-path:url(#clippath-2);}.cls-5{opacity:.88;}.cls-6{opacity:.91;}.cls-7{opacity:.93;}</style><clipPath id="clippath"><rect class="cls-1" x="71.32" y="396.88" width="120.91" height="18.39"/></clipPath><clipPath id="clippath-1"><rect class="cls-1" x="192.24" y="396.88" width="120.91" height="18.39"/></clipPath><clipPath id="clippath-2"><rect class="cls-1" x="96.72" y="378.55" width="96.89" height="14.73"/></clipPath><clipPath id="clippath-3"><rect class="cls-1" x="193.61" y="378.55" width="96.89" height="14.73"/></clipPath></defs><polygon class="cls-4" points="71.32 408.99 71.32 391.23 71.32 168.23 313.15 168.23 313.15 408.99 71.32 408.99"/><g><g class="cls-2"><path class="cls-4" d="m71.32,409.07c46.76,6.83,101.25,6.17,144.38,6.17-.92.77.17-13.66-.75-12.89.34-5.09-8.85-.38-8.51-5.47-45.1,3.62-90.2,7.24-135.12,12.19Z"/></g><g class="cls-12"><path class="cls-4" d="m313.15,409.07c-46.76,6.83-101.25,6.17-144.38,6.17.92.77-.17-13.66.75-12.89-.34-5.09,8.85-.38,8.51-5.47,45.1,3.62,90.2,7.24,135.12,12.19Z"/></g></g><polygon class="cls-3" points="173.3 385.75 88.78 71.45 102 67.72 186.52 382.02 173.3 385.75"/><g><g class="cls-14"><path class="cls-9" d="m96.72,388.32c37.47,5.47,81.14,4.94,115.7,4.94-.74.61.13-10.94-.6-10.33.27-4.08-7.09-.3-6.82-4.38-36.14,2.9-72.28,5.8-108.27,9.77Z"/></g><g class="cls-13"><path class="cls-9" d="m290.5,388.32c-37.47,5.47-81.14,4.94-115.7,4.94.74.61-.13-10.94.6-10.33-.27-4.08,7.09-.3,6.82-4.38,36.14,2.9,72.28,5.8,108.27,9.77Z"/></g></g><polygon id="_Rectangle_" class="cls-6" points="182.59 367.61 202.9 315.4 253.85 336.22 233.54 388.43 182.59 367.61"/><polygon id="_Rectangle_-2" class="cls-5" points="138.13 384.83 106.02 339.26 150.48 306.35 182.59 351.92 138.13 384.83"/><polygon id="_Rectangle_-3" class="cls-5" points="139.89 298.71 163.75 248.1 213.14 272.54 189.28 323.16 139.89 298.71"/><path class="cls-11" d="m93.58,394.58c66.27-.42,132.53-.85,198.8-1.27.27-23.01.53-32.9.8-55.91-51.33-15.2-70.83-14.96-120.27-1.12-15.23,4.26-67.26,17.4-81.14,9.69.86,19.87.58,26.08,1.81,48.61Z"/><path class="cls-8" d="m293.18,297.4c-1.23-18.63,1.42-34.91.19-53.54-34.11-3.58-68.95,5.44-102.85,10.76-38.14,6-65.3.51-101.56-2.75.38,16.7,1.07,28.71,1.45,45.4,53.64-12.7,132.63-11,202.77.11Z"/><path class="cls-10" d="m90.63,296.11c-1.07,16.52,2.21,33.33,1.15,49.86,18.59,8.06,53.28,7.36,71.57-1.39,45.3-21.65,82.98-23.86,129.82-6.01-.65-14.06.66-28.41.01-42.46-61.95-16.22-137.37-11.64-202.55,0Z"/><polygon class="cls-7" points="191.16 361.05 211.79 308.97 262.61 330.12 241.98 382.2 191.16 361.05"/><path class="cls-7" d="m136.74,384.54l-30.9-43.85c-.33-.48-.23-1.14.23-1.48l40.15-29.72c.46-.34,1.11-.24,1.45.24l30.9,43.85c.33.48.23,1.14-.23,1.48l-40.15,29.72c-.46.34-1.11.24-1.45-.24Z"/></svg>